<?xml version="1.0" encoding="utf-8"?>
<!-- Generator: Adobe Illustrator 14.0.0, SVG Export Plug-In . SVG Version: 6.00 Build 43363)  -->
<!DOCTYPE svg PUBLIC "-//W3C//DTD SVG 1.1//EN" "http://www.w3.org/Graphics/SVG/1.1/DTD/svg11.dtd">
<svg version="1.1" id="Layer_1" xmlns="http://www.w3.org/2000/svg" xmlns:xlink="http://www.w3.org/1999/xlink" x="0px" y="0px"
	 width="864px" height="864px" viewBox="0 0 864 864" enable-background="new 0 0 864 864" xml:space="preserve">
<path d="M217.954,72.1v719.999h427.529V72.1H217.954z M600.894,86.264l0.013,0.014l-5.563,5.566l-20.81-5.576l0.014-0.004H600.894z
	 M548.937,611.159l-14.03-8.104l-0.003-16.209l4.318,7.484l20.138-5.395l-14.743,14.744L548.937,611.159z M555.741,622.935
	l12.048,20.854l-13.916-0.031l-0.006,0.123l-6.897,11.959l-12.021-20.803l-0.005-24.094L555.741,622.935z M546.971,669.472
	l6.903,11.965l0.005,0.113l0.041-0.012l13.876-0.006l-12.005,20.813l-20.841,12.037l-0.014-24.053L546.971,669.472z
	 M560.718,707.368l13.196-7.623l19.374,19.35l7.693,28.453l-28.468-7.625l-19.386-19.385L560.718,707.368z M589.771,705.97
	l-14.736-14.736l-7.461,4.303l8.016-14.006l16.249-0.004l-7.462,4.307L589.771,705.97z M571.809,674.72l-13.906,0.068l-7.038-12.068
	l6.923-12.125l13.902-0.061l7.044,12.066L571.809,674.72z M575.695,643.854l-8.127-14.068l7.46,4.307l14.74-14.74l-5.394,20.131
	l7.457,4.305L575.695,643.854z M573.907,625.581l-13.164-7.605L553.13,604.8l19.356-19.381l28.415-7.613l-7.607,28.387
	L573.907,625.581z M569.027,579.294l-26.516,7.105l-7.61-13.156l-0.003-15.24l26.443-7.104l28.496,7.568L569.027,579.294z
	 M426.149,698.612l5.563-5.564l0.008,0.002l5.589,5.523l-5.587,20.857l-0.001-0.004l-0.001,0.02v-0.035L426.149,698.612z
	 M431.713,683.417l-7.601,7.602l-2.782-10.389l-10.403,2.789l2.788-10.398l-10.384-2.783l7.603-7.602l-7.614-7.613l10.398-2.787
	l-2.782-10.387l10.386,2.785l2.784-10.402l7.614,7.613l0.001-0.01l7.6-7.57l2.783,10.385l10.402-2.789l-2.785,10.398l10.435,2.729
	l-7.654,7.656l7.614,7.617l-10.399,2.785l2.783,10.385l-10.384-2.785l-2.736,10.459L431.713,683.417z M349.334,726.403
	l-14.033-8.027l-0.002-16.287l4.319,7.49l20.136-5.398l-14.744,14.746L349.334,726.403z M342.906,701.646l-7.61-13.154
	l-0.003-15.242l26.446-7.104l28.487,7.566l-20.838,20.838L342.906,701.646z M314.506,253.057l14.027,8.025l0.003,16.283
	l-4.321-7.486l-20.135,5.393l14.743-14.742L314.506,253.057z M307.697,241.277l-12.051-20.855l13.906,0.016l0.002-0.131
	l6.909-11.979l12.021,20.803l0.031,24.146L307.697,241.277z M316.463,194.695l-6.891-11.939l-0.011-0.146l-0.131,0.064
	l-13.789,0.004l12.036-20.83l20.805-12.018l0.016,24.006L316.463,194.695z M302.721,156.842l-13.197,7.625l-19.375-19.348
	l-7.621-28.445l28.37,7.59l19.413,19.412L302.721,156.842z M273.665,158.24l14.737,14.738l7.46-4.309l-8.015,14.012l-16.255,0.004
	l7.469-4.309L273.665,158.24z M291.63,189.49l13.926-0.07l7.013,12.029l-6.945,12.166l-13.875,0.063l-7.045-12.068L291.63,189.49z
	 M287.742,220.355l8.128,14.07l-7.461-4.309l-14.74,14.74l5.395-20.131l-7.489-4.307L287.742,220.355z M289.529,238.631
	l13.166,7.604l7.613,13.176l-19.355,19.381l-28.416,7.615l7.607-28.389L289.529,238.631z M294.443,284.906l26.482-7.096
	l7.611,13.191l0.001,15.205l-26.442,7.105l-28.49-7.568L294.443,284.906z M426.144,165.52l5.563-20.758l5.579,20.791l-5.565,5.59
	v-0.045L426.144,165.52z M431.719,180.729l0.002,0.023l7.6-7.6l2.783,10.383l10.402-2.787l-2.785,10.396l10.435,2.73l-7.654,7.656
	l7.614,7.615l-10.399,2.787l2.783,10.383l-10.384-2.783l-2.736,10.457l-7.658-7.66l-0.001,0.008v-0.027l-0.007-0.008l-7.601,7.604
	l-2.782-10.389l-10.403,2.789l2.788-10.4l-10.384-2.781l7.603-7.604l-7.614-7.613l10.398-2.787l-2.782-10.385l10.386,2.785
	l2.784-10.404L431.719,180.729z M548.937,150.045l-14.03-8.104l-0.003-16.209l4.318,7.486l20.138-5.396l-14.743,14.746
	L548.937,150.045z M555.741,161.822l12.048,20.852l-13.916-0.031l-0.006,0.125l-6.897,11.959l-12.021-20.803l-0.005-24.094
	L555.741,161.822z M546.971,208.357l6.903,11.967l0.005,0.113l0.041-0.014l13.876-0.006l-12.005,20.813l-20.841,12.037
	l-0.014-24.051L546.971,208.357z M548.939,253.055l-4.325,7.486l14.739,14.738l-20.141-5.395l-4.313,7.482l-0.007-16.197
	L548.939,253.055z M548.219,316.824l-20.133,5.396l0.002,8.621L520,316.822l0.002-0.002H520l8.082-14.008l-0.001,8.617l20.125,5.391
	h-0.001L548.219,316.824z M548.937,380.602l-14.03-8.104l-0.003-16.209l4.318,7.486l20.138-5.396l-14.743,14.746L548.937,380.602z
	 M559.354,505.837l-20.141-5.396l-4.313,7.484l-0.007-16.197l14.047-8.117l-4.325,7.488L559.354,505.837z M534.95,483.823
	l-0.014-24.051l12.034-20.858l6.903,11.965l0.005,0.113l0.041-0.012l13.876-0.006l-12.005,20.813L534.95,483.823z M546.97,425.281
	l-12.021-20.801l-0.005-24.094l20.797,11.99l12.048,20.854l-13.916-0.031l-0.006,0.125L546.97,425.281z M534.953,426.703
	l-0.002-8.619l8.125,13.949l-8.119,14.072v-8.615l-20.139-5.393L534.953,426.703z M397.758,649.46l-15.219-15.217l20.8,5.572
	l2.037,7.602L397.758,649.46z M401.301,662.638l-5.565,5.564l-20.806-5.574l20.792-5.57L401.301,662.638z M314.506,483.612
	l14.027,8.025l0.003,16.283l-4.321-7.486l-20.135,5.395l14.743-14.744L314.506,483.612z M304.083,358.373l20.141,5.396l4.315-7.482
	l0.005,16.199l-14.046,8.111l4.326-7.484L304.083,358.373z M328.482,380.387l0.016,24.006l-12.035,20.859l-6.891-11.939
	l-0.011-0.146l-0.131,0.063l-13.789,0.006l12.036-20.83L328.482,380.387z M316.464,438.885l12.021,20.802l0.031,24.148
	l-20.818-12.002l-12.051-20.854l13.906,0.014l0.002-0.129L316.464,438.885z M328.48,437.463l0.002,8.625l-8.088-14.018l8.082-14.01
	v8.615l20.14,5.395L328.48,437.463z M351.305,316.82l6.903-12.094h13.908l7.015,12.006l-0.051,0.088h0.002l-6.879,12.031
	l-13.928,0.07l-7.013-12.025L351.305,316.82L351.305,316.82z M349.334,265.289l-14.033-8.025l-0.002-16.287l4.319,7.488
	l20.136-5.396l-14.744,14.746L349.334,265.289z M372.881,239.553l28.415-7.615l-7.606,28.389l-19.387,19.389l-13.164-7.605
	l-7.613-13.176L372.881,239.553z M397.77,214.688l7.602,2.033l-1.969,7.602l-20.857,5.588L397.77,214.688z M395.735,207.09
	l-20.806-5.576l20.792-5.57l5.579,5.58L395.735,207.09z M471.178,566.243l16.166-0.063l8.13,14.068l-7.463-4.307l-14.741,14.74
	l5.395-20.133L471.178,566.243z M426.317,559.392l-8.632,0.004l13.963-8.139l14.105,8.164l-8.646-0.004l-5.388,20.1v-0.014
	L426.317,559.392z M390.167,590.661l-14.737-14.738l-7.468,4.311l8.097-14.012l16.178-0.006l-7.465,4.309L390.167,590.661z
	 M351.305,547.378l6.903-12.096h13.908l7.015,12.006l-0.051,0.09h0.002l-6.879,12.031l-13.928,0.07l-7.013-12.027L351.305,547.378
	L351.305,547.378z M349.334,495.845l-14.033-8.025l-0.002-16.287l4.319,7.488l20.136-5.396L345.01,488.37L349.334,495.845z
	 M473.268,273.506l14.736,14.74l7.46-4.307l-8.015,14.008l-16.255,0.004l7.468-4.307L473.268,273.506z M471.178,335.686
	l16.166-0.063l8.13,14.07l-7.463-4.309l-14.741,14.74l5.395-20.131L471.178,335.686z M484.305,316.877l0.03-0.057l6.896-12.063
	l13.906-0.068l7.037,12.068l-0.035,0.063l-6.886,12.063l-13.903,0.061L484.305,316.877z M483.438,304.758l-6.969,12.053l0.007,0.006
	l0.003,0.004h-0.001l6.966,12.055l-24.119-0.008l-20.877-12.012l0.061-0.035h0.002l20.846-12.051L483.438,304.758z M460.115,439.703
	l-10.399,2.785l2.783,10.386l-10.384-2.784l-2.736,10.458l-7.658-7.66l-0.001,0.008v-0.029l-0.007-0.008l-7.601,7.604l-2.782-10.388
	l-10.403,2.788l2.788-10.399l-10.384-2.781l7.603-7.604l-7.614-7.613l10.398-2.787l-2.782-10.385l10.386,2.785l2.784-10.404
	l7.613,7.611l7.602-7.576l2.783,10.383l10.402-2.787l-2.785,10.396l10.435,2.73l-7.654,7.656L460.115,439.703z M445.754,328.863
	l-8.646-0.004l-5.388,20.086l-5.402-20.111l-8.632,0.004l13.963-8.137l0.071,0.041l0.001-0.004v0.025L445.754,328.863z
	 M437.285,396.109l-5.565,5.545l-5.576-5.578l5.556-20.732L437.285,396.109z M421.089,335.648l7.106,26.453l-7.615,28.416
	l-20.781-20.783l-7.096-26.482l13.166-7.598L421.089,335.648z M418.545,398.111l-2.04,7.627l-7.604-2.039l-5.576-20.807
	L418.545,398.111z M403.339,409.26l2.037,7.602l-7.618,2.041l-15.219-15.217L403.339,409.26z M401.301,432.08l-5.565,5.566
	l-20.806-5.576l20.792-5.57L401.301,432.08z M397.77,445.242l7.602,2.035l-1.969,7.601l-20.857,5.59L397.77,445.242z
	 M408.892,460.46l7.623-2.045l2.04,7.604l-15.234,15.232L408.892,460.46z M420.593,473.612l7.612,28.363l-7.106,26.52l-15.229-0.008
	l-13.168-7.6l7.067-26.453L420.593,473.612z M426.149,468.056l5.553-5.555l5.606,5.516l-5.596,20.74L426.149,468.056z
	 M426.326,535.308l5.394-20.137l0.001-0.027v0.049l5.396,20.141l8.641-0.004l-14.038,8.102l-14.042-8.131L426.326,535.308z
	 M442.344,528.521l-7.106-26.453l7.615-28.416l20.78,20.779l7.097,26.484l-13.167,7.6L442.344,528.521z M444.889,466.056l2.04-7.627
	l7.604,2.035l5.575,20.813L444.889,466.056z M446.921,405.75l-2.092-7.549l15.284-15.283l-5.571,20.789L446.921,405.75z
	 M442.866,390.621l-7.628-28.467l7.096-26.48l15.231,0.006l13.167,7.6l-7.068,26.453L442.866,390.621z M431.733,312.865
	l-14.056-8.121l8.648,0.008l5.396-20.111l5.395,20.137l8.641-0.004L431.733,312.865z M424.986,316.756l-0.112,0.064h-0.001
	l-20.795,12.021l-24.085,0.008l6.96-12.029l0.009-0.016h-0.001l-7.051-12.078h24.105L424.986,316.756z M392.236,335.658
	l-7.465,4.309l5.396,20.137l-14.737-14.738l-7.468,4.311l8.097-14.012L392.236,335.658z M374.309,353.879l19.377,19.348
	l7.691,28.455l-28.467-7.625l-19.386-19.389l7.588-13.168L374.309,353.879z M390.16,420.938l-28.387,7.605l-26.484-7.094
	l0.002-15.201l7.607-13.184l26.462,7.072L390.16,420.938z M390.227,443.156l-20.838,20.837l-26.482,7.096l-7.61-13.154
	l-0.003-15.241l26.446-7.104L390.227,443.156z M372.881,470.108l28.415-7.613l-7.606,28.387l-19.387,19.389l-13.164-7.604
	l-7.613-13.178L372.881,470.108z M375.422,518.782l14.742-14.74l-5.395,20.133l7.461,4.305l-16.14,0.064l-8.13-14.066
	L375.422,518.782z M379.993,559.407l6.96-12.029l0.009-0.018h-0.001l-7.051-12.078h24.105l20.971,12.029l-0.113,0.066
	l-20.795,12.021L379.993,559.407z M438.447,547.413l0.061-0.035h0.002l20.846-12.053l24.082-0.012l-6.969,12.053l0.007,0.006
	l0.003,0.006h-0.001l6.966,12.055l-24.119-0.01L438.447,547.413z M484.305,547.433l0.03-0.055l6.896-12.063l13.906-0.07l7.037,12.07
	l-0.035,0.063l-6.886,12.063l-13.903,0.061L484.305,547.433z M487.449,528.503l-16.255,0.004l7.468-4.305l-5.395-20.139
	l14.736,14.738l7.46-4.305L487.449,528.503z M489.125,510.29l-19.374-19.35l-7.694-28.463l28.442,7.609l19.413,19.41l-7.59,13.17
	L489.125,510.29z M460.095,454.909l-2.036-7.604l7.617-2.041l15.22,15.22L460.095,454.909z M462.133,432.088l5.564-5.566
	l20.807,5.576l-20.79,5.57L462.133,432.088z M465.664,418.926l-7.602-2.037l2.04-7.619l20.786-5.572L465.664,418.926z
	 M462.139,401.672l7.606-28.387l19.386-19.387l13.166,7.604l7.613,13.176l-19.355,19.381L462.139,401.672z M518.423,375.797
	l-4.319-7.477l14.031,8.088l0.001,16.229l-4.32-7.492l-20.134,5.396L518.423,375.797z M507.297,356.545l-12.048-20.854l13.917,0.029
	l0.006-0.127l6.896-11.955l12.021,20.84l0.004,24.055L507.297,356.545z M509.164,298.039l-0.006-0.113l-0.05,0.014l-13.865,0.004
	l12.036-20.828l20.809-12.02l0.015,24.051l-12.034,20.861L509.164,298.039z M514.101,265.311l4.324-7.486l-14.741-14.738
	l20.141,5.395l4.316-7.482l0.004,16.197L514.101,265.311z M509.912,258.941l-7.59,13.168l-13.197,7.623l-19.374-19.348
	l-7.694-28.463l28.442,7.609L509.912,258.941z M460.095,224.352l-2.036-7.604l7.617-2.041l15.22,15.221L460.095,224.352z
	 M460.108,250.721l-15.22-15.223l2.04-7.625l7.604,2.035L460.108,250.721z M463.633,263.875l7.097,26.484l-13.167,7.6l-15.219,0.006
	l-7.106-26.453l7.615-28.416L463.633,263.875z M431.722,258.318l-0.001-0.006v0.041l-0.001-0.057l-5.57-20.797l5.571-5.535v-0.014
	l5.588,5.508L431.722,258.318z M428.205,271.42l-7.106,26.518l-15.229-0.008l-13.168-7.598l7.067-26.453l20.824-20.822
	L428.205,271.42z M403.32,250.693l5.571-20.789l7.623-2.045l2.04,7.602L403.32,250.693z M375.422,288.227l14.742-14.74
	l-5.395,20.131l7.461,4.307l-16.14,0.064l-8.13-14.068L375.422,288.227z M354.307,335.672l13.884-0.004l-12.005,20.813
	l-20.837,12.033l-0.015-24.008l12.034-20.861L354.307,335.672z M349.329,368.305l-4.319,7.484l14.742,14.742l-20.144-5.4
	l-4.315,7.477l-0.008-16.191L349.329,368.305z M356.135,507.622l12.052,20.855l-13.908-0.014v0.129l-6.91,11.979l-12.021-20.801
	l-0.068-24.172L356.135,507.622z M354.307,566.229l13.884-0.004l-12.005,20.811l-20.837,12.033l-0.015-24.006l12.034-20.861
	L354.307,566.229z M361.112,592.058l13.196-7.623l19.377,19.35l7.691,28.453l-28.467-7.625l-19.386-19.387L361.112,592.058z
	 M403.324,613.45l15.221,15.219l-2.04,7.625l-7.604-2.037L403.324,613.45z M399.799,600.292l-7.096-26.482l13.166-7.598l15.22-0.006
	l7.106,26.451l-7.615,28.416L399.799,600.292z M431.72,605.841l5.565,20.826l-5.563,5.564v0.008l-5.578-5.605L431.72,605.841z
	 M435.238,592.712l7.096-26.48l15.231,0.004l13.167,7.6l-7.068,26.453l-20.798,20.891L435.238,592.712z M460.113,613.476
	l-5.571,20.789l-7.621,2.041l-2.092-7.549L460.113,613.476z M460.103,639.827l20.786-5.572l-15.225,15.229l-7.602-2.039
	L460.103,639.827z M462.139,632.229l7.606-28.389l19.386-19.387l13.166,7.605l7.613,13.176l-19.355,19.379L462.139,632.229z
	 M518.423,606.353l-4.319-7.475l14.031,8.088l0.001,16.229l-4.32-7.492l-20.134,5.396L518.423,606.353z M507.297,587.101
	l-12.048-20.852l13.917,0.029l0.006-0.127l6.896-11.955l12.021,20.838l0.004,24.057L507.297,587.101z M509.164,528.595l-0.006-0.113
	l-0.05,0.016l-13.865,0.002l12.036-20.828l20.809-12.02l0.015,24.051l-12.034,20.861L509.164,528.595z M514.101,495.866l4.324-7.486
	l-14.741-14.738l20.141,5.395l4.316-7.48l0.004,16.197L514.101,495.866z M528.142,457.921l-7.605,13.182l-26.46-7.068
	l-20.803-20.806l28.387-7.605l26.484,7.096L528.142,457.921z M501.697,428.58l-28.491-7.568l20.839-20.838l26.482-7.098
	l7.611,13.193l0.001,15.205L501.697,428.58z M528.142,227.363l-7.605,13.184l-26.46-7.07l-20.803-20.803l28.387-7.607l26.484,7.096
	L528.142,227.363z M467.714,207.111l-5.581-5.578l5.564-5.568l20.807,5.576L467.714,207.111z M465.664,188.369l-7.602-2.037
	l2.04-7.619l20.786-5.572L465.664,188.369z M454.542,173.15l-7.621,2.043l-2.092-7.549l15.284-15.283L454.542,173.15z
	 M416.505,175.182l-7.604-2.039l-5.576-20.807l15.221,15.221L416.505,175.182z M403.339,178.703l2.037,7.602l-7.618,2.041
	l-15.219-15.217L403.339,178.703z M390.16,190.381l-28.387,7.605l-26.484-7.094l0.002-15.201l7.607-13.184l26.462,7.072
	L390.16,190.381z M390.227,212.6l-20.838,20.838l-26.482,7.096l-7.61-13.156l-0.003-15.24l26.446-7.104L390.227,212.6z
	 M356.135,277.066l12.052,20.854l-13.908-0.012v0.129l-6.91,11.977l-12.021-20.801l-0.068-24.172L356.135,277.066z M335.351,311.438
	l-0.001-8.623l8.083,14.006h0.009l-8.086,14.021v-8.617l-20.137-5.396l0.029-0.008h-0.001L335.351,311.438z M328.543,327.451
	l-0.002,15.201l-7.607,13.186l-26.459-7.074l-20.803-20.801l28.388-7.607L328.543,327.451z M310.311,374.232l-7.59,13.166
	l-13.197,7.625l-19.375-19.348l-7.621-28.445l28.37,7.59L310.311,374.232z M273.665,388.795l14.737,14.74l7.46-4.309l-8.015,14.01
	l-16.255,0.006l7.469-4.309L273.665,388.795z M291.63,420.047l13.926-0.07l7.013,12.029l-6.945,12.166l-13.875,0.063l-7.045-12.068
	L291.63,420.047z M287.742,450.912l8.128,14.069l-7.461-4.307l-14.74,14.738l5.395-20.131l-7.489-4.306L287.742,450.912z
	 M289.529,469.188l13.166,7.602l7.613,13.176l-19.355,19.381l-28.416,7.615l7.607-28.389L289.529,469.188z M294.443,515.464
	l26.482-7.096l7.611,13.189l0.001,15.205l-26.442,7.105l-28.49-7.566L294.443,515.464z M328.543,558.009l-0.002,15.201
	l-7.607,13.184l-26.459-7.072l-20.803-20.803l28.388-7.605L328.543,558.009z M310.311,604.79l-7.59,13.166l-13.197,7.623
	l-19.375-19.348l-7.621-28.443l28.37,7.588L310.311,604.79z M273.665,619.353l14.737,14.74l7.46-4.309l-8.015,14.01l-16.255,0.004
	l7.469-4.307L273.665,619.353z M291.63,650.603l13.926-0.068l7.013,12.027l-6.945,12.166l-13.875,0.063l-7.045-12.068
	L291.63,650.603z M287.742,681.47l8.128,14.068l-7.461-4.307l-14.74,14.74l5.395-20.133l-7.489-4.307L287.742,681.47z
	 M289.529,699.745l13.166,7.602l7.613,13.178l-19.355,19.379l-28.416,7.615l7.607-28.389L289.529,699.745z M318.823,721.642
	l-4.317-7.473l14.027,8.025l0.003,16.283l-4.321-7.486l-20.135,5.395L318.823,721.642z M307.697,702.39l-12.051-20.855l13.906,0.016
	l0.002-0.129l6.909-11.98l12.021,20.805l0.031,24.146L307.697,702.39z M316.463,655.81l-6.891-11.941l-0.011-0.146l-0.131,0.064
	l-13.789,0.004l12.036-20.828l20.805-12.018l0.016,24.006L316.463,655.81z M314.498,611.155l4.326-7.484l-14.741-14.742
	l20.141,5.398l4.315-7.484l0.005,16.201L314.498,611.155z M315.219,547.386l0.029-0.008h-0.002l20.104-5.385l-0.001-8.623
	l8.083,14.008h0.01l-8.087,14.02v-8.615L315.219,547.386z M349.329,598.862l-4.319,7.482l14.742,14.742l-20.144-5.398l-4.315,7.477
	l-0.008-16.191L349.329,598.862z M335.291,636.804l7.607-13.182l26.462,7.072l20.8,20.801l-28.387,7.605l-26.484-7.096
	L335.291,636.804z M397.77,675.8l7.602,2.033l-1.969,7.602l-20.857,5.59L397.77,675.8z M408.892,691.017l7.623-2.045l2.04,7.604
	l-15.234,15.232L408.892,691.017z M446.929,688.985l7.604,2.035l5.575,20.813l-15.22-15.221L446.929,688.985z M460.095,685.466
	l-2.036-7.604l7.617-2.041l15.22,15.219L460.095,685.466z M462.133,662.646l5.564-5.568l20.807,5.576l-20.79,5.57L462.133,662.646z
	 M473.206,651.569l20.839-20.838l26.482-7.098l7.611,13.191l0.001,15.205l-26.442,7.107L473.206,651.569z M528.086,552.776
	l0.002,8.621L520,547.38l0.002-0.002H520l8.082-14.008l-0.001,8.617l20.126,5.391h-0.002l0.014,0.004L528.086,552.776z
	 M534.894,536.759l0.003-15.201l7.606-13.184l26.459,7.07l20.802,20.803l-28.385,7.605L534.894,536.759z M553.128,489.981
	l7.59-13.17l13.196-7.623l19.374,19.35l7.693,28.453l-28.468-7.627L553.128,489.981z M589.771,475.413l-14.736-14.738l-7.461,4.305
	l8.016-14.007l16.249-0.004l-7.462,4.308L589.771,475.413z M571.809,444.164l-13.906,0.066l-7.038-12.068l6.923-12.123l13.902-0.063
	l7.044,12.066L571.809,444.164z M575.695,413.297l-8.127-14.068l7.46,4.309l14.74-14.74l-5.394,20.129l7.457,4.307L575.695,413.297z
	 M573.907,395.025l-13.164-7.605l-7.613-13.176l19.356-19.383l28.415-7.611l-7.607,28.385L573.907,395.025z M569.027,348.738
	l-26.516,7.104l-7.61-13.156l-0.003-15.24l26.443-7.104l28.496,7.568L569.027,348.738z M534.894,306.203l0.003-15.201l7.606-13.186
	l26.459,7.072l20.802,20.803l-28.385,7.605L534.894,306.203z M553.128,259.424l7.59-13.17l13.196-7.621l19.374,19.35l7.693,28.451
	l-28.468-7.625L553.128,259.424z M589.771,244.857l-14.736-14.738l-7.461,4.305l8.016-14.008l16.249-0.004l-7.462,4.309
	L589.771,244.857z M571.809,213.607l-13.906,0.068l-7.038-12.07l6.923-12.123l13.902-0.063l7.044,12.068L571.809,213.607z
	 M575.695,182.74l-8.127-14.068l7.46,4.309l14.74-14.74l-5.394,20.129l7.457,4.307L575.695,182.74z M573.907,164.469l-13.164-7.605
	l-7.613-13.176l19.356-19.383l28.415-7.611l-7.607,28.385L573.907,164.469z M569.027,118.182l-26.516,7.104l-7.61-13.156
	l-0.003-15.24l26.443-7.104l28.496,7.57L569.027,118.182z M534.953,196.146l-0.002-8.619l8.125,13.949l-8.119,14.072v-8.615
	l-20.139-5.393L534.953,196.146z M501.697,198.023l-28.491-7.568l20.839-20.838l26.482-7.098l7.611,13.193l0.001,15.205
	L501.697,198.023z M523.815,154.59l-20.134,5.395l14.741-14.744l-4.319-7.477l14.031,8.088l0.001,16.229L523.815,154.59z
	 M507.297,125.988l-12.048-20.854l13.917,0.029l0.006-0.125l6.896-11.957l12.021,20.84l0.004,24.055L507.297,125.988z
	 M495.474,119.137l-7.463-4.309l-14.741,14.74l5.395-20.131l-7.486-4.307l16.166-0.064L495.474,119.137z M489.131,123.342
	l13.166,7.604l7.613,13.176l-19.355,19.381l-28.416,7.613l7.606-28.387L489.131,123.342z M463.664,139.176l-20.798,20.889
	l-7.628-28.467l7.096-26.48l15.231,0.006l13.167,7.6L463.664,139.176z M437.107,98.303l-5.387,20.107l-0.001,0.082v-0.104
	l-0.009,0.031l-5.394-20.141l-8.632,0.004l13.963-8.139l14.105,8.162L437.107,98.303z M421.089,105.092l7.106,26.453l-7.615,28.416
	l-20.781-20.783l-7.096-26.482l13.166-7.598L421.089,105.092z M393.686,142.67l7.691,28.455L372.91,163.5l-19.386-19.389
	l7.588-13.168l13.196-7.621L393.686,142.67z M390.167,129.547l-14.737-14.738l-7.468,4.311l8.097-14.012l16.178-0.006l-7.465,4.309
	L390.167,129.547z M356.186,125.924l-20.837,12.033l-0.015-24.006l12.034-20.863l6.938,12.027l13.884-0.004L356.186,125.924z
	 M349.329,137.748l-4.319,7.484l14.742,14.742l-20.144-5.4l-4.315,7.479l-0.008-16.193L349.329,137.748z M348.616,201.514
	l-20.136,5.393l0.002,8.625l-8.088-14.018l8.082-14.008v8.613L348.616,201.514z M314.498,150.043l4.326-7.486l-14.741-14.74
	l20.141,5.396l4.315-7.482l0.005,16.199L314.498,150.043z M328.541,112.098l-7.607,13.184l-26.459-7.074l-20.803-20.801
	l28.388-7.607l26.483,7.096L328.541,112.098z M281.293,114.66l-20.8-5.576l-2.035-7.6l7.563-2.096L281.293,114.66z M260.508,135.451
	l-15.222-15.221l2.042-7.621l7.604,2.031L260.508,135.451z M264.031,148.609l7.096,26.482l-13.166,7.598l-15.219,0.008
	l-7.106-26.453l7.616-28.418L264.031,148.609z M259.754,189.502l24.082-0.01l-6.967,12.053l0.008,0.008l6.965,12.057l-24.117-0.01
	l-20.88-12.01L259.754,189.502z M271.13,228.01l-7.067,26.457l-20.799,20.889l-7.627-28.467l7.097-26.482l15.23,0.006L271.13,228.01
	z M260.511,267.65l-5.571,20.791l-7.621,2.043l-2.038-7.605L260.511,267.65z M260.501,294.002l20.786-5.57l-15.225,15.227
	l-7.603-2.037L260.501,294.002z M262.531,316.82l5.566-5.566l20.775,5.566h-0.003l0.033,0.01l-20.792,5.57l-5.58-5.578V316.82z
	 M266.021,329.945l15.271,15.27l-20.8-5.574l-2.035-7.6L266.021,329.945z M260.508,366.008l-15.222-15.221l2.042-7.623l7.604,2.033
	L260.508,366.008z M264.031,379.166l7.096,26.482l-13.166,7.598l-15.219,0.008l-7.106-26.453l7.616-28.418L264.031,379.166z
	 M259.754,420.059l24.082-0.01l-6.967,12.053l0.008,0.008l6.965,12.057l-24.117-0.01l-20.88-12.01L259.754,420.059z M271.13,458.567
	l-7.067,26.457l-20.799,20.887l-7.627-28.467l7.097-26.481l15.23,0.004L271.13,458.567z M260.511,498.206l-5.571,20.791
	l-7.621,2.043l-2.038-7.604L260.511,498.206z M260.501,524.56l20.786-5.572l-15.225,15.227l-7.603-2.035L260.501,524.56z
	 M262.531,547.376l5.566-5.566l20.776,5.568h-0.004l0.033,0.008l-20.792,5.572l-5.58-5.58V547.376z M266.021,560.501l15.271,15.271
	l-20.8-5.574l-2.035-7.602L266.021,560.501z M260.508,596.565l-15.222-15.221l2.042-7.623l7.604,2.033L260.508,596.565z
	 M264.031,609.722l7.096,26.482l-13.166,7.6l-15.219,0.006l-7.106-26.453l7.616-28.418L264.031,609.722z M259.754,650.614
	l24.082-0.01l-6.967,12.053l0.008,0.01l6.965,12.057l-24.117-0.01l-20.88-12.012L259.754,650.614z M271.13,689.124l-7.067,26.457
	l-20.799,20.887l-7.627-28.467l7.097-26.482l15.23,0.006L271.13,689.124z M260.511,728.763l-5.571,20.791l-7.621,2.043l-2.038-7.604
	L260.511,728.763z M260.501,755.116l20.786-5.572l-15.225,15.227l-7.603-2.035L260.501,755.116z M294.443,746.021l26.482-7.096
	l7.611,13.189l0.001,15.207l-26.442,7.104l-28.49-7.566L294.443,746.021z M328.48,668.021l0.002,8.625l-8.088-14.018l8.082-14.01
	v8.615l20.14,5.395L328.48,668.021z M356.135,738.181l12.052,20.854l-13.908-0.014v0.129l-6.91,11.979l-12.021-20.801l-0.068-24.172
	L356.135,738.181z M367.961,745.034l7.461,4.305l14.742-14.74l-5.395,20.133l7.461,4.305l-16.14,0.064L367.961,745.034z
	 M374.303,740.827l-13.164-7.604l-7.613-13.178l19.355-19.381l28.415-7.613l-7.606,28.387L374.303,740.827z M399.769,724.993
	l20.824-20.824l7.612,28.363l-7.106,26.52l-15.229-0.008l-13.168-7.6L399.769,724.993z M426.326,765.864l5.387-20.111l5.404,20.137
	l8.641-0.004l-14.019,8.09l-14.062-8.117L426.326,765.864z M442.344,759.077l-7.106-26.451l7.615-28.418l20.78,20.779l7.097,26.484
	l-13.167,7.6L442.344,759.077z M469.751,721.497l-7.694-28.463l28.442,7.609l19.413,19.41l-7.59,13.17l-13.197,7.623
	L469.751,721.497z M473.268,734.62l14.736,14.74l7.46-4.307l-8.015,14.006l-16.255,0.004l7.468-4.305L473.268,734.62z
	 M507.279,738.229l20.809-12.021l0.015,24.051l-12.034,20.861l-6.904-11.969l-0.006-0.111l-0.05,0.014l-13.865,0.002
	L507.279,738.229z M514.101,726.423l4.324-7.486l-14.741-14.738l20.141,5.395l4.316-7.48l0.004,16.197L514.101,726.423z
	 M528.142,688.478l-7.605,13.184l-26.46-7.07l-20.803-20.805l28.387-7.605l26.484,7.096L528.142,688.478z M514.818,662.653
	l20.135-5.393l-0.002-8.621l8.125,13.949l-8.119,14.074v-8.615L514.818,662.653z M548.939,714.169l-4.325,7.486l14.739,14.738
	l-20.141-5.396l-4.313,7.484l-0.007-16.197L548.939,714.169z M534.896,752.114l7.606-13.184l26.459,7.07l20.802,20.805
	l-28.385,7.604l-26.485-7.094L534.896,752.114z M582.146,749.554l20.798,5.572l2.036,7.6l-7.563,2.096L582.146,749.554z
	 M602.93,728.759l15.221,15.221l-2.041,7.621l-7.584-1.963L602.93,728.759z M599.403,715.601l-7.095-26.48l13.165-7.602
	l15.222-0.004l7.105,26.453l-7.614,28.416L599.403,715.601z M603.684,674.708l-24.121,0.074l7.008-12.113l-0.008-0.008
	l-6.968-12.061l24.058,0.01l20.939,12.012L603.684,674.708z M592.306,636.2l7.069-26.455l20.824-20.822l7.611,28.365l-7.105,26.518
	l-15.231-0.006L592.306,636.2z M602.926,596.563l5.571-20.793l7.621-2.043l2.042,7.6L602.926,596.563z M602.937,570.208
	l-20.785,5.57l15.225-15.227l7.603,2.037L602.937,570.208z M595.344,552.958l-20.81-5.576l0.014-0.004h-0.001l20.779-5.568
	l5.568,5.568h-0.001l0.013,0.012L595.344,552.958z M597.417,534.265l-15.271-15.268l20.798,5.572l2.036,7.6L597.417,534.265z
	 M602.93,498.202l15.221,15.221l-2.041,7.621l-7.584-1.965L602.93,498.202z M599.403,485.044l-7.095-26.48l13.165-7.601
	l15.222-0.006l7.105,26.454l-7.614,28.416L599.403,485.044z M603.684,444.152l-24.121,0.074l7.008-12.115l-0.008-0.006
	l-6.968-12.061l24.058,0.008l20.939,12.014L603.684,444.152z M592.306,405.643l7.069-26.453l20.824-20.822l7.611,28.363
	l-7.105,26.518l-15.231-0.006L592.306,405.643z M602.926,366.006l5.571-20.791l7.621-2.045l2.042,7.602L602.926,366.006z
	 M602.937,339.65l-20.785,5.57l15.225-15.225l7.603,2.037L602.937,339.65z M595.344,322.4l-20.81-5.576l0.012-0.004h0.001
	l20.779-5.566l5.568,5.566h-0.001l0.013,0.012L595.344,322.4z M597.417,303.709l-15.271-15.27l20.798,5.574l2.036,7.6
	L597.417,303.709z M602.93,267.645l15.221,15.221l-2.041,7.621l-7.584-1.963L602.93,267.645z M599.403,254.488l-7.095-26.482
	l13.165-7.6l15.222-0.006l7.105,26.455l-7.614,28.414L599.403,254.488z M603.684,213.596l-24.121,0.074l7.008-12.113l-0.008-0.008
	l-6.968-12.061l24.058,0.008l20.939,12.014L603.684,213.596z M592.306,175.086l7.069-26.453l20.824-20.822l7.611,28.363
	l-7.105,26.518l-15.231-0.006L592.306,175.086z M602.926,135.449l5.571-20.791l7.621-2.045l2.042,7.602L602.926,135.449z
	 M602.937,109.094l-20.785,5.57l15.225-15.225l7.603,2.037L602.937,109.094z M548.205,86.264l0.014,0.004l-20.133,5.396l0.002,8.621
	L520,86.268l0.002-0.004H548.205z M512.139,86.264l-6.886,12.063l-13.903,0.061l-7.045-12.066l0.03-0.057H512.139z M476.478,86.264
	l6.966,12.055l-24.119-0.008l-20.877-12.012l0.061-0.035H476.478z M431.721,86.264v0.006V86.264L431.721,86.264z M424.873,86.264
	l-20.795,12.021l-24.085,0.008l6.96-12.029H424.873z M379.082,86.264l-6.879,12.033l-13.928,0.068l-7.013-12.025l0.043-0.076
	H379.082z M343.442,86.264l-8.087,14.021v-8.617l-20.137-5.396l0.029-0.008H343.442z M288.87,86.264l0.033,0.01l-20.792,5.57
	l-5.58-5.578v-0.002H288.87z M232.119,86.264h20.78l7.614,7.617l-10.399,2.785l2.782,10.383l-10.384-2.783l-2.788,10.404
	l-7.605-7.605V86.264z M232.119,116.695l5.57,5.57l-5.57,20.785V116.695z M232.119,169.371l5.397,20.137l8.638-0.002l-14.033,8.1
	h-0.002V169.371z M232.119,205.496l14.035,8.1l-8.646-0.004l-5.389,20.107V205.496z M232.119,260.078l5.564,20.764l-5.563,5.566
	h-0.002V260.078z M232.119,296.043l7.602-7.604l2.781,10.385l10.402-2.789l-2.786,10.4l10.436,2.729l-7.653,7.656l7.613,7.617
	l-10.399,2.785l2.782,10.383l-10.384-2.783l-2.788,10.404l-7.605-7.605V296.043z M232.119,347.252l5.57,5.57l-5.57,20.785V347.252z
	 M232.119,399.926l5.397,20.139l8.638-0.004l-14.033,8.102h-0.002V399.926z M232.119,436.053l14.035,8.1l-8.646-0.004l-5.389,20.106
	V436.053z M232.119,490.634l5.564,20.766l-5.563,5.566l-0.002-0.002V490.634z M232.119,526.599l7.602-7.602l2.781,10.385
	l10.402-2.789l-2.786,10.398l10.436,2.73l-7.654,7.656l7.614,7.615l-10.399,2.787l2.782,10.383l-10.384-2.783l-2.788,10.402
	l-7.605-7.604V526.599z M232.119,577.81l5.57,5.568l-5.57,20.785V577.81z M232.119,630.483l5.397,20.139l8.638-0.004l-14.033,8.102
	l-0.002-0.002V630.483z M232.119,666.608l14.035,8.102l-8.646-0.004l-5.389,20.105V666.608z M232.119,721.19l5.564,20.766
	l-5.563,5.566l-0.002-0.002V721.19z M232.119,777.935v-20.779l7.602-7.602l2.781,10.385l10.402-2.789l-2.786,10.398l10.436,2.73
	l-7.654,7.656H232.119z M262.531,777.935v-0.002l5.566-5.566l20.776,5.568H262.531z M315.246,777.935l20.104-5.385l-0.001-8.623
	l8.083,14.008H315.246z M351.305,777.935l6.903-12.096h13.908l7.015,12.008l-0.051,0.088H351.305z M386.953,777.935l0.009-0.016
	l-0.001-0.002l-7.051-12.078h24.105l20.971,12.029l-0.113,0.066H386.953z M438.51,777.935l20.846-12.051l24.082-0.014l-6.969,12.053
	l0.007,0.006l0.003,0.006H438.51z M484.335,777.935l6.896-12.063l13.906-0.07l7.037,12.07l-0.035,0.063H484.335z M520,777.935
	l8.082-14.008l-0.001,8.617l20.126,5.391H520z M574.547,777.935l20.779-5.568l5.568,5.568H574.547z M631.318,777.935h-20.793
	l-7.674-7.586l10.471-2.805l-2.781-10.383l10.385,2.783l2.787-10.402l7.605,7.605V777.935z M631.318,747.515l-5.589-5.496
	l5.588-20.859l0.001,0.004V747.515z M631.318,694.839l-0.001,0.004l-5.396-20.141l-8.634,0.004l13.967-8.139l0.064,0.037V694.839z
	 M631.318,658.714l-14.034-8.1l8.646,0.002l5.389-20.105V658.714z M631.318,604.136l-5.566-20.768l5.566-5.566V604.136z
	 M631.318,568.171l-7.601,7.6l-2.783-10.385l-10.401,2.787l2.785-10.398l-10.382-2.781l7.602-7.602l-0.014-0.014h0.001l-7.674-7.586
	l10.471-2.805l-2.781-10.383l10.385,2.783l2.787-10.402l7.605,7.605V568.171z M631.318,516.958l-5.589-5.496l5.588-20.859
	l0.001,0.004V516.958z M631.318,464.282l-0.001,0.004l-5.396-20.14l-8.634,0.002l13.967-8.137l0.064,0.037V464.282z
	 M631.318,428.156l-14.034-8.1l8.646,0.004l5.389-20.107V428.156z M631.318,373.58l-5.566-20.77l5.566-5.564V373.58z
	 M631.318,337.613l-7.601,7.602l-2.783-10.385l-10.401,2.787l2.785-10.4l-10.382-2.781l7.602-7.602l-0.014-0.014h0.001l-7.674-7.584
	l10.471-2.805l-2.781-10.385l10.385,2.785l2.787-10.402l7.605,7.605V337.613z M631.318,286.4l-5.589-5.496l5.588-20.859l0.001,0.006
	V286.4z M631.318,233.727l-0.001,0.004l-5.396-20.141l-8.634,0.002l13.967-8.137l0.064,0.037V233.727z M631.318,197.602
	l-14.034-8.102l8.646,0.004l5.389-20.105V197.602z M631.318,143.023l-5.566-20.77l5.566-5.564V143.023z M631.318,107.057
	l-7.601,7.602l-2.783-10.385l-10.401,2.787l2.785-10.4l-10.382-2.781l7.602-7.602l-0.014-0.014h20.794V107.057z"/>
</svg>
