<?xml version="1.0" encoding="utf-8"?>
<!-- Generator: Adobe Illustrator 14.0.0, SVG Export Plug-In . SVG Version: 6.00 Build 43363)  -->
<!DOCTYPE svg PUBLIC "-//W3C//DTD SVG 1.1//EN" "http://www.w3.org/Graphics/SVG/1.1/DTD/svg11.dtd">
<svg version="1.1" id="Layer_1" xmlns="http://www.w3.org/2000/svg" xmlns:xlink="http://www.w3.org/1999/xlink" x="0px" y="0px"
	 width="864px" height="864px" viewBox="0 0 864 864" enable-background="new 0 0 864 864" xml:space="preserve">
<path d="M195.581,72.1v719.999h473.539V72.1H195.581z M641.311,88.01l0.035,0.061l-5.182,9.076l-10.352,0.047l-5.256-9.002
	l0.104-0.182H641.311z M623.691,174.146l-15.512,4.156l-4.162-4.162l4.152-4.152l15.5,4.152h-0.004L623.691,174.146z
	 M623.691,346.146l-15.512,4.156l-4.162-4.162l4.152-4.154l15.5,4.154h-0.004L623.691,346.146z M623.691,518.146l-15.512,4.158
	l-4.162-4.164l4.152-4.152l15.5,4.152h-0.004L623.691,518.146z M623.691,690.146l-15.512,4.156l-4.162-4.162l4.152-4.154l15.5,4.154
	h-0.004L623.691,690.146z M612.322,743.833l10.996,10.996l5.564-3.213l-5.979,10.451l-12.127,0.004l5.57-3.213L612.322,743.833z
	 M624.154,748.479l-14.455-14.434l-5.686-21.219l21.166,5.66l14.482,14.482L634,742.792L624.154,748.479z M428.259,749.267
	l4.154-15.506l0.006,0.02v0.02l4.151,15.492l-4.15,4.15h-0.001v-0.016L428.259,749.267z M436.588,114.936l-4.167,15.561
	l-0.001-0.004v-0.012l-4.156-15.514l4.15-4.152l0.006,0.006v0.016L436.588,114.936z M602.512,179.822l-7.758,2.078l2.076,7.746
	l-7.748-2.076l-2.078,7.762l-5.68-5.68l-5.67,5.67l-2.076-7.746l-7.762,2.078l2.079-7.758l-7.745-2.074l5.672-5.672l-0.012-0.01
	h0.001l-5.726-5.658l7.813-2.092l-2.074-7.748l7.746,2.078l2.08-7.762l5.68,5.682l5.67-5.672l2.074,7.746l7.762-2.08l-2.08,7.758
	l7.785,2.037l-5.709,5.711L602.512,179.822z M614.719,260.148l5.195,8.994l-17.99-0.006l-15.578-8.961l15.6-9.018l17.965-0.008
	l-5.197,8.992L614.719,260.148z M602.512,351.822l-7.758,2.078l2.076,7.746l-7.748-2.076l-2.078,7.762l-5.68-5.68l-5.67,5.67
	l-2.076-7.748l-7.762,2.08l2.079-7.758l-7.745-2.074l5.672-5.672l-0.012-0.01h0.001l-5.726-5.66l7.813-2.092l-2.074-7.746
	l7.746,2.076l2.08-7.76l5.68,5.68l5.67-5.672l2.074,7.748l7.762-2.08l-2.08,7.758l7.785,2.037l-5.709,5.711L602.512,351.822z
	 M614.719,432.148l5.195,8.994l-17.99-0.008l-15.578-8.959l15.6-9.018l17.965-0.008l-5.197,8.992L614.719,432.148z M602.512,523.821
	l-7.758,2.08l2.076,7.744l-7.748-2.076l-2.078,7.762l-5.68-5.68l-5.67,5.672l-2.076-7.748l-7.762,2.078l2.079-7.758l-7.745-2.074
	l5.672-5.672l-0.012-0.01h0.001l-5.726-5.658l7.813-2.092l-2.074-7.748l7.746,2.078l2.08-7.762l5.68,5.682l5.67-5.672l2.074,7.746
	l7.762-2.08l-2.08,7.758l7.785,2.037l-5.709,5.711L602.512,523.821z M614.719,604.147l5.195,8.994l-17.99-0.006l-15.578-8.961
	l15.6-9.018l17.965-0.008l-5.197,8.992L614.719,604.147z M602.512,695.821l-7.758,2.078l2.076,7.746l-7.748-2.076l-2.078,7.762
	l-5.68-5.68l-5.67,5.67l-2.076-7.748l-7.762,2.08l2.079-7.758l-7.745-2.074l5.672-5.672l-0.012-0.01h0.001l-5.726-5.658l7.813-2.094
	l-2.074-7.746l7.746,2.076l2.08-7.76l5.68,5.68l5.67-5.672l2.074,7.748l7.762-2.08l-2.08,7.758l7.785,2.037l-5.709,5.711
	L602.512,695.821z M598.348,711.31l4.158,15.525l-11.354-11.355l1.523-5.688L598.348,711.31z M585.484,716.997l-4.154,15.506
	l-4.158-15.514l4.152-4.152L585.484,716.997z M432.413,714.13l-4.024-15.027l-6.439,0.002l10.417-6.07l0.054,0.031v0.016
	l10.469,6.043l-6.45-0.004l-4.019,15v-0.016L432.413,714.13z M283.508,705.651l-5.671,5.67l-2.075-7.748l-7.761,2.08l2.079-7.758
	l-7.746-2.074l5.671-5.672l-0.01-0.01l-5.725-5.658l7.812-2.094l-2.075-7.746l7.748,2.076l2.078-7.76l5.68,5.68l5.67-5.672
	l2.076,7.748l7.761-2.08l-2.079,7.758l7.785,2.037l-5.71,5.711l5.681,5.682l-7.759,2.078l2.077,7.746l-7.747-2.076l-2.081,7.762
	L283.508,705.651z M287.669,716.997l-4.156,15.506l-4.158-15.514l4.153-4.152L287.669,716.997z M283.513,158.641l5.67-5.672
	l2.076,7.746l7.761-2.08l-2.079,7.758l7.785,2.037l-5.71,5.711l5.681,5.682l-7.759,2.078l2.077,7.746l-7.747-2.076l-2.081,7.762
	l-5.678-5.68l-5.671,5.67l-2.075-7.746l-7.761,2.078l2.079-7.758l-7.746-2.074l5.671-5.672l-0.01-0.01l-5.725-5.658l7.812-2.092
	l-2.075-7.748l7.748,2.078l2.078-7.762L283.513,158.641z M279.339,147.348l4.168-15.563l4.158,15.514l-4.151,4.154L279.339,147.348z
	 M325.875,174.146l-15.511,4.156l-4.163-4.162l4.153-4.152l15.499,4.152h-0.002L325.875,174.146z M372.428,174.141l5.15-9.023
	h10.375l5.233,8.957l-0.038,0.066h0.001l-5.131,8.977l-10.39,0.053l-5.232-8.973L372.428,174.141L372.428,174.141z M370.958,135.697
	l-10.468-5.988l-0.002-12.15l3.223,5.588l15.021-4.027l-11,11.002L370.958,135.697z M388.524,116.496l21.198-5.68l-5.675,21.178
	l-14.462,14.465l-9.82-5.674l-5.681-9.83L388.524,116.496z M390.42,152.809l10.997-10.996l-4.024,15.018l5.567,3.213l-12.041,0.047
	l-6.066-10.494L390.42,152.809z M436.445,165.156l6.445-0.004l-10.47,6.043l-0.001-0.002v-0.016l-10.477-6.047l6.452,0.006
	l4.025-15.023v0.016L436.445,165.156z M538.971,174.141l15.502-4.152l4.154,4.152l0.008,0.01l-4.148,4.152l-15.525-4.16l0.012-0.002
	H538.971z M560.156,157.127l1.52,5.668l-5.645,1.563l-11.391-11.389L560.156,157.127z M560.145,137.455l11.355,11.355l-1.522,5.684
	l-5.659-1.463L560.145,137.455z M473.994,676.06l-12.125,0.002l5.569-3.211l-4.024-15.023l10.994,10.994l5.566-3.213L473.994,676.06
	z M476.816,681.14l10.373-0.051l5.25,9.004l-0.025,0.047l-5.137,8.998l-10.373,0.045l-5.256-9.002l0.023-0.041L476.816,681.14z
	 M475.244,662.472l-14.453-14.436l-5.74-21.232l21.218,5.676l14.483,14.48l-5.66,9.824L475.244,662.472z M421.943,681.13
	l6.452,0.006l4.025-15.023v0.016l4.026,15.025l6.445-0.002l-10.47,6.041h-0.001v-0.016L421.943,681.13z M393.15,690.14l-5.131,8.977
	l-10.39,0.051l-5.232-8.971l0.033-0.057h-0.001l5.15-9.023h10.375l5.233,8.957L393.15,690.14L393.15,690.14z M390.919,676.089
	l-6.066-10.494l5.567,3.213l10.997-10.998l-4.024,15.02l5.567,3.213L390.919,676.089z M389.585,662.456l-9.82-5.672l-5.681-9.83
	l14.439-14.459l21.198-5.68l-5.675,21.178L389.585,662.456z M370.958,651.696l-10.468-5.988l-0.002-12.15l3.223,5.586l15.021-4.025
	l-11,11L370.958,651.696z M325.875,690.146l-15.511,4.156l-4.163-4.162l4.153-4.154l15.499,4.154h-0.002L325.875,690.146z
	 M308.835,680.319l-5.671-1.518l1.522-5.686l15.507-4.156L308.835,680.319z M259.699,643.638l-5.293-19.756l9.822-5.67l11.355-0.004
	l5.302,19.736l-5.682,21.197L259.699,643.638z M273.685,664.808l-1.523,5.686l-5.658-1.465l-4.174-15.574L273.685,664.808z
	 M250.12,604.144l-5.198-8.998l17.947,0.008l15.621,8.961l-15.598,9.018l-17.996,0.055l5.229-9.037L250.12,604.144z M267.996,518.14
	l-5.725-5.658l7.812-2.092l-2.075-7.748l7.748,2.078l2.078-7.762l5.68,5.682l5.67-5.672l2.076,7.746l7.761-2.08l-2.079,7.758
	l7.785,2.037l-5.71,5.711l5.681,5.682l-7.759,2.08l2.077,7.744l-7.747-2.076l-2.081,7.762l-5.678-5.68l-5.671,5.672l-2.075-7.748
	l-7.761,2.078l2.079-7.758l-7.746-2.074l5.671-5.672L267.996,518.14z M250.12,432.145l-5.198-8.998l17.947,0.008l15.621,8.961
	l-15.598,9.016l-17.996,0.057l5.229-9.037L250.12,432.145z M267.996,346.141l-5.725-5.66l7.812-2.092l-2.075-7.746l7.748,2.076
	l2.078-7.76l5.68,5.68l5.67-5.672l2.076,7.748l7.761-2.08l-2.079,7.758l7.785,2.037l-5.71,5.711l5.681,5.682l-7.759,2.078
	l2.077,7.746l-7.747-2.076l-2.081,7.762l-5.678-5.68l-5.671,5.67l-2.075-7.748l-7.761,2.08l2.079-7.758l-7.746-2.074l5.671-5.672
	L267.996,346.141z M250.12,260.145l-5.198-8.998l17.947,0.008l15.621,8.961l-15.598,9.018l-17.996,0.055l5.229-9.037L250.12,260.145
	z M275.212,205.135l5.679,21.16l-5.301,19.783l-11.363-0.006l-9.824-5.668l5.273-19.736L275.212,205.135z M262.327,210.834
	l4.156-15.512l5.686-1.525l1.522,5.672L262.327,210.834z M401.419,206.432l-10.994-10.996l-5.571,3.217l6.04-10.453l12.069-0.006
	l-5.57,3.215L401.419,206.432z M389.589,201.787l14.456,14.434l5.737,21.229l-21.236-5.689l-14.463-14.463l5.662-9.824
	L389.589,201.787z M442.889,183.125l-6.45-0.002l-4.019,14.998v-0.016l-0.007,0.025l-4.024-15.027l-6.439,0.002l10.417-6.07
	l0.054,0.031v0.016L442.889,183.125z M473.916,188.168l6.064,10.496l-5.566-3.215l-10.998,10.998l4.025-15.02l-5.587-3.213
	L473.916,188.168z M471.648,174.182l0.023-0.041l5.145-8.998l10.373-0.053l5.25,9.004l-0.025,0.047l-5.137,8.998l-10.373,0.045
	L471.648,174.182z M475.25,201.801l9.822,5.672l5.68,9.83l-14.441,14.459l-21.197,5.68l5.674-21.178L475.25,201.801z
	 M550.328,292.453l-10.994-10.994l-5.565,3.211l5.981-10.449l12.121-0.002l-5.566,3.213L550.328,292.453z M552.953,302.246
	l5.738,21.225l-21.236-5.688l-14.463-14.463l5.662-9.824l9.846-5.686L552.953,302.246z M536.928,269.141l-10.373,0.051l-5.252-9.004
	l5.164-9.045l10.373-0.045l5.254,9.002L536.928,269.141z M542.713,269.188l5.229-9.037l-0.006-0.006l-5.199-8.998l17.947,0.008
	l15.621,8.961l-15.598,9.018L542.713,269.188z M539.828,246.115l-6.064-10.496l5.566,3.213l10.996-10.996l-4.023,15.018l5.563,3.213
	L539.828,246.115z M538.494,232.482l-9.82-5.674l-5.68-9.828l14.439-14.461l21.197-5.678l-5.674,21.176L538.494,232.482z
	 M516.643,216.145l3.223,5.578l-10.467-6.045l-0.003-12.092l3.222,5.584l15.023-4.025L516.643,216.145z M524.941,230.508
	l8.988,15.557l-10.381-0.023l-0.006,0.094l-5.145,8.92l-8.969-15.52l-0.002-17.973L524.941,230.508z M523.549,274.15l0.004,0.086
	l0.031-0.01l10.352-0.004l-8.957,15.525l-15.547,8.98l-0.01-17.943l8.977-15.561L523.549,274.15z M519.867,298.57l-3.227,5.584
	l10.996,10.996l-15.025-4.025l-3.219,5.582l-0.004-12.082L519.867,298.57z M509.391,326.879l5.676-9.836l19.738,5.275l15.52,15.52
	l-21.178,5.674l-19.758-5.293L509.391,326.879z M453.602,609.813l-7.756,2.078l2.076,7.746l-7.746-2.076l-2.043,7.801l-5.713-5.715
	v-0.014l-0.006-0.006l-5.67,5.672l-2.075-7.75l-7.761,2.08l2.08-7.758l-7.747-2.076l5.672-5.672l-5.681-5.68l7.758-2.078
	l-2.076-7.748l7.748,2.076l2.077-7.76l5.681,5.68v0.016l5.67-5.67l2.076,7.746l7.76-2.08l-2.078,7.756l7.785,2.037l-5.711,5.713
	L453.602,609.813z M449.438,625.3l4.16,15.527l-11.354-11.355l1.521-5.689L449.438,625.3z M428.263,630.964l4.15-4.15l0.006,0.006
	v0.016l4.168,4.1l-4.167,15.561l-0.001-0.004v-0.012L428.263,630.964z M312.947,618.222l12.063-0.047l6.063,10.496l-5.565-3.213
	l-10.996,10.996l4.023-15.02L312.947,618.222z M314.507,227.836l10.995,10.996l5.564-3.215l-5.979,10.451l-12.126,0.004l5.571-3.213
	L314.507,227.836z M325.507,281.459l-10.996,10.996l4.023-15.02l-5.588-3.213l12.063-0.047l6.063,10.496L325.507,281.459z
	 M336.165,293.48l5.68,9.83l-14.439,14.459l-21.199,5.682l5.675-21.18l14.462-14.461L336.165,293.48z M322.742,260.189l5.168-9.041
	l10.389-0.051l5.232,8.973l-5.182,9.076l-10.352,0.047L322.742,260.189z M322.095,251.15l-5.199,8.992l0.007,0.006l5.195,8.994
	l-17.991-0.006l-15.577-8.961l15.599-9.018L322.095,251.15z M283.514,257.203l-10.476-6.047l6.449,0.004l4.025-15.021l4.026,15.025
	l6.444-0.004L283.514,257.203z M293.984,269.133l-6.451-0.002l-4.025,15.023l-4.025-15.027l-6.441,0.004l10.42-6.072
	L293.984,269.133z M287.666,319.299l-4.151,4.154l-4.175-4.107l4.168-15.561L287.666,319.299z M286.138,293.969l5.293-19.756
	l11.363,0.004l9.822,5.67l-5.273,19.736l-15.516,15.582L286.138,293.969z M304.695,309.457l-4.156,15.512l-5.687,1.523l-1.521-5.674
	L304.695,309.457z M304.687,329.117l15.507-4.156l-11.358,11.359l-5.671-1.518L304.687,329.117z M310.354,341.986l15.499,4.154
	h-0.002l0.024,0.006l-15.511,4.156l-4.163-4.162L310.354,341.986z M314.507,399.834l10.995,10.996l5.564-3.213l-5.979,10.451
	l-12.126,0.004l5.571-3.213L314.507,399.834z M311.884,390.047l-5.686-21.221l21.165,5.662l14.481,14.482l-5.662,9.822l-9.845,5.688
	L311.884,390.047z M327.91,423.148l10.389-0.051l5.232,8.973l-5.182,9.076l-10.352,0.047l-5.256-9.004L327.91,423.148z
	 M322.095,423.15l-5.199,8.992l0.007,0.006l5.195,8.994l-17.991-0.008l-15.577-8.959l15.599-9.018L322.095,423.15z M325.009,446.176
	l6.063,10.495l-5.565-3.213l-10.996,10.996l4.023-15.019l-5.588-3.213L325.009,446.176z M326.342,459.81l9.822,5.672l5.68,9.83
	l-14.439,14.457l-21.199,5.682l5.675-21.18L326.342,459.81z M348.196,476.146l-3.22-5.576l10.464,5.988l0.002,12.146l-3.224-5.584
	l-15.021,4.023L348.196,476.146z M339.896,461.782l-8.99-15.558l10.375,0.01v-0.096l5.155-8.938l8.968,15.521l0.023,18.014
	L339.896,461.782z M346.435,427.033l-5.141-8.908l-0.008-0.109l-0.098,0.047l-10.287,0.004l8.979-15.539l15.521-8.965l0.011,17.908
	L346.435,427.033z M344.97,393.721l3.227-5.584L337.2,377.139l15.025,4.025l3.22-5.582l0.004,12.086L344.97,393.721z
	 M355.446,365.412l-5.675,9.836l-19.739-5.277l-15.519-15.518l21.177-5.676l19.758,5.293L355.446,365.412z M308.805,355.932
	l11.393,11.393l-15.517-4.16l-1.519-5.67L308.805,355.932z M304.691,382.834l-11.354-11.354l1.523-5.688l5.672,1.518
	L304.691,382.834z M307.32,392.65l5.294,19.756l-9.821,5.67l-11.355,0.004l-5.3-19.734l5.681-21.199L307.32,392.65z
	 M283.513,388.504l-4.158-15.514l4.153-4.152l4.161,4.16L283.513,388.504z M287.54,423.162l6.444-0.002l-10.47,6.043l-10.476-6.047
	l6.449,0.004l4.025-15.021L287.54,423.162z M293.984,441.133l-6.451-0.004l-4.025,15.024l-4.025-15.026l-6.441,0.002l10.42-6.07
	L293.984,441.133z M287.666,491.3l-4.151,4.152l-4.175-4.105l4.168-15.563L287.666,491.3z M286.138,465.968l5.293-19.755
	l11.363,0.004l9.822,5.67l-5.273,19.735l-15.516,15.582L286.138,465.968z M304.695,481.458l-4.156,15.51l-5.687,1.523l-1.521-5.672
	L304.695,481.458z M304.687,501.116l15.507-4.156l-11.358,11.361l-5.671-1.52L304.687,501.116z M310.354,513.987l15.499,4.152
	h-0.002l0.024,0.006l-15.511,4.158l-4.163-4.164L310.354,513.987z M308.805,527.931l11.393,11.393l-15.517-4.158l-1.519-5.672
	L308.805,527.931z M304.691,554.835l-11.354-11.355l1.523-5.686l5.672,1.516L304.691,554.835z M307.32,564.651l5.294,19.756
	l-9.821,5.668l-11.355,0.006l-5.3-19.734l5.681-21.201L307.32,564.651z M283.513,560.503l-4.158-15.514l4.153-4.152l4.161,4.16
	L283.513,560.503z M287.54,595.163l6.444-0.004l-10.47,6.043l-10.476-6.047l6.449,0.004l4.025-15.021L287.54,595.163z
	 M293.984,613.132l-6.451-0.002l-4.025,15.023l-4.025-15.025l-6.441,0.002l10.42-6.072L293.984,613.132z M288.531,604.175
	l15.599-9.018l17.966-0.008l-5.199,8.992l0.007,0.006l5.195,8.994l-17.991-0.006L288.531,604.175z M322.742,604.188l5.168-9.041
	l10.389-0.051l5.232,8.973l-5.182,9.076l-10.352,0.047L322.742,604.188z M325.087,590.067l-12.126,0.004l5.571-3.213l-4.025-15.023
	l10.995,10.996l5.564-3.215L325.087,590.067z M326.338,576.479l-14.454-14.434l-5.686-21.219l21.165,5.662l14.481,14.48
	l-5.662,9.822L326.338,576.479z M314.513,526.452l21.177-5.676l19.758,5.295l-0.002,11.34l-5.675,9.836l-19.739-5.277
	L314.513,526.452z M314.462,509.876l15.547-15.545l19.756-5.293l5.678,9.84l0.001,11.344l-19.726,5.301L314.462,509.876z
	 M355.401,436.143l0.002,6.434l-6.034-10.457l6.029-10.451v6.426l15.024,4.025L355.401,436.143z M372.428,346.141l5.15-9.023h10.375
	l5.233,8.957l-0.038,0.066h0.001l-5.131,8.977l-10.39,0.051l-5.232-8.971L372.428,346.141L372.428,346.141z M370.958,307.697
	l-10.468-5.988l-0.002-12.15l3.223,5.586l15.021-4.025l-11,11L370.958,307.697z M388.524,288.496l21.198-5.68l-5.675,21.178
	l-14.462,14.463l-9.82-5.672l-5.681-9.83L388.524,288.496z M436.57,233.293l-4.15,4.15h-0.001v-0.014l-4.16-4.162l4.154-15.506
	l0.006,0.021v0.018L436.57,233.293z M432.419,244.615v0.016l5.67-5.67l2.076,7.746l7.76-2.08l-2.078,7.756l7.785,2.037l-5.711,5.713
	l5.68,5.682l-7.756,2.078l2.076,7.746l-7.746-2.076l-2.043,7.801l-5.713-5.715v-0.014l-0.006-0.006l-5.67,5.67l-2.075-7.748
	l-7.761,2.08l2.08-7.758l-7.747-2.076l5.672-5.672l-5.681-5.68l7.758-2.08l-2.076-7.746l7.748,2.076l2.077-7.76L432.419,244.615z
	 M442.199,234.852l11.402-11.4l-4.156,15.51l-5.686,1.523L442.199,234.852z M461.854,532.214l12.062-0.047l6.064,10.496
	l-5.566-3.215l-10.998,10.998l4.025-15.02L461.854,532.214z M440.734,573.196l-5.689-21.236l5.293-19.756l11.363,0.004l9.822,5.67
	l-5.273,19.734L440.734,573.196z M453.602,567.45l-4.156,15.51l-5.686,1.523l-1.561-5.633L453.602,567.45z M428.259,577.267
	l4.154-15.506l0.006,0.021v0.018l4.151,15.492l-4.15,4.15h-0.001v-0.014L428.259,577.267z M408.604,557.614l-5.293-19.756
	l9.823-5.668l11.354-0.004l5.301,19.734l-5.681,21.197L408.604,557.614z M422.59,578.784l-1.521,5.689l-5.673-1.521l-4.16-15.52
	L422.59,578.784z M401.419,550.431l-10.994-10.996l-5.571,3.217l6.04-10.453l12.069-0.006l-5.57,3.215L401.419,550.431z
	 M372.428,518.14l5.15-9.023h10.375l5.233,8.959l-0.038,0.064h0.001l-5.131,8.977l-10.39,0.053l-5.232-8.973L372.428,518.14
	L372.428,518.14z M370.958,479.696l-10.468-5.988l-0.002-12.15l3.223,5.588l15.021-4.027l-11,11.002L370.958,479.696z
	 M424.119,291.111l5.679,21.158l-5.302,19.783l-11.361-0.006l-9.824-5.668l5.273-19.734L424.119,291.111z M411.233,296.809
	l4.156-15.51l5.687-1.525l1.522,5.672L411.233,296.809z M436.588,286.936l-4.167,15.561l-0.001-0.004v-0.012l-4.156-15.516
	l4.15-4.15l0.006,0.006v0.016L436.588,286.936z M456.227,306.641l5.294,19.76l-9.821,5.668l-11.354,0.006l-5.303-19.736
	l5.682-21.197L456.227,306.641z M442.244,285.473l1.521-5.689l5.672,1.518l4.16,15.527L442.244,285.473z M463.414,313.828
	l10.994,10.994l5.566-3.213l-5.98,10.451l-12.125,0.002l5.569-3.211L463.414,313.828z M453.602,437.813l-7.756,2.078l2.076,7.748
	l-7.746-2.076l-2.043,7.8l-5.713-5.714v-0.016l-0.006-0.006l-5.67,5.673l-2.075-7.751l-7.761,2.082l2.08-7.758l-7.747-2.076
	l5.672-5.672l-5.681-5.68l7.758-2.08l-2.076-7.746l7.748,2.076l2.077-7.76l5.681,5.678v0.018l5.67-5.67l2.076,7.746l7.76-2.08
	l-2.078,7.756l7.785,2.037l-5.711,5.711L453.602,437.813z M432.413,542.13l-4.024-15.027l-6.439,0.004l10.417-6.072l0.054,0.031
	v0.016l10.469,6.043l-6.45-0.002l-4.019,14.998v-0.016L432.413,542.13z M432.419,515.194v-0.018l-10.477-6.047l6.452,0.006
	l4.025-15.023v0.016l4.026,15.027l6.445-0.004L432.419,515.194L432.419,515.194z M436.445,337.154l6.445-0.002l-10.47,6.041h-0.001
	v-0.016l-10.477-6.047l6.452,0.006l4.025-15.023v0.016L436.445,337.154z M432.419,349.066v0.016l10.469,6.043l-6.45-0.004l-4.019,15
	v-0.016l-0.007,0.025l-4.024-15.027l-6.439,0.002l10.417-6.07L432.419,349.066z M440.734,401.197l-5.689-21.236l5.293-19.756
	l11.363,0.004l9.822,5.67l-5.273,19.734L440.734,401.197z M453.602,395.451l-4.156,15.51l-5.686,1.521l-1.561-5.631L453.602,395.451
	z M428.259,405.268l4.154-15.506l0.006,0.02v0.02l4.151,15.49l-4.15,4.152h-0.001v-0.016L428.259,405.268z M424.489,360.186
	l5.301,19.734l-5.681,21.199l-15.504-15.504l-5.293-19.756l9.823-5.668L424.489,360.186z M422.59,406.785l-1.521,5.689l-5.673-1.521
	l-4.16-15.521L422.59,406.785z M411.247,415.102l1.521,5.67l-5.685,1.523l-11.353-11.352L411.247,415.102z M409.726,432.127
	l-4.152,4.152l-15.521-4.16l15.51-4.156L409.726,432.127z M407.092,441.945l5.671,1.518l-1.469,5.672l-15.561,4.169L407.092,441.945
	z M415.389,453.298l5.687-1.524l1.522,5.671l-11.365,11.363L415.389,453.298z M424.119,463.11l5.679,21.158l-5.302,19.785
	l-11.361-0.006l-9.824-5.67l5.273-19.734L424.119,463.11z M436.588,458.935l-4.167,15.561l-0.001-0.004v-0.012l-4.156-15.514
	l4.15-4.152l0.006,0.006v0.016L436.588,458.935z M440.346,504.073l-5.303-19.734l5.682-21.199l15.502,15.5l5.294,19.76l-9.821,5.668
	L440.346,504.073z M442.244,457.472l1.521-5.688l5.672,1.519l4.16,15.525L442.244,457.472z M452.072,420.793l1.521-5.684
	l15.508-4.158l-11.359,11.361L452.072,420.793z M455.113,409.441l5.674-21.178l14.463-14.463l9.822,5.672l5.68,9.83l-14.441,14.459
	L455.113,409.441z M474.414,367.449l-10.998,10.998l4.025-15.02l-5.587-3.213l12.062-0.047l6.064,10.496L474.414,367.449z
	 M471.648,346.182l0.023-0.041l5.145-9l10.373-0.051l5.25,9.004l-0.025,0.047l-5.137,8.998l-10.373,0.045L471.648,346.182z
	 M471.002,337.141l-5.199,8.992l0.006,0.004l0.002,0.004l5.195,8.992l-17.992-0.006l-15.576-8.961l0.047-0.025l15.551-8.99
	L471.002,337.141z M411.751,337.117l15.644,8.975l-0.084,0.049l-15.513,8.969l-17.969,0.006l5.192-8.975h0.001l0.006-0.012
	l-5.261-9.012H411.751z M402.963,360.193l-5.57,3.215l4.026,15.021l-10.994-10.994l-5.571,3.215l6.04-10.453L402.963,360.193z
	 M389.589,373.787l14.456,14.434l5.737,21.227l-21.236-5.688l-14.463-14.465l5.662-9.822L389.589,373.787z M401.416,423.814
	l-21.177,5.674l-19.759-5.293l0.002-11.342l5.675-9.834l19.741,5.277L401.416,423.814z M401.464,440.389l-15.545,15.546
	l-19.756,5.293l-5.678-9.815l-0.002-11.369l19.729-5.299L401.464,440.389z M388.524,460.495l21.198-5.68l-5.675,21.178
	l-14.462,14.465l-9.82-5.674l-5.681-9.828L388.524,460.495z M390.42,496.808l10.997-10.996l-4.024,15.02l5.567,3.211l-12.041,0.049
	l-6.066-10.496L390.42,496.808z M393.83,527.114l5.192-8.975h0.001l0.006-0.012l-5.261-9.012h17.983l15.644,8.975l-0.084,0.049
	l-15.513,8.969L393.83,527.114z M453.014,527.126l-15.576-8.959l0.047-0.027l15.551-8.99l17.967-0.008l-5.199,8.99l0.006,0.004
	l0.002,0.004l5.195,8.994L453.014,527.126z M471.648,518.181l0.023-0.041l5.145-8.998l10.373-0.051l5.25,9.002l-0.025,0.047
	l-5.137,8.998l-10.373,0.045L471.648,518.181z M473.994,504.06l-12.125,0.004l5.569-3.213l-4.024-15.023l10.994,10.996l5.566-3.213
	L473.994,504.06z M475.244,490.472l-14.453-14.436l-5.74-21.232l21.218,5.676l14.483,14.48l-5.66,9.824L475.244,490.472z
	 M453.588,449.156l-1.52-5.672l5.682-1.523l11.354,11.354L453.588,449.156z M455.107,432.133l4.152-4.154l15.521,4.16l-15.511,4.156
	L455.107,432.133z M463.369,423.869l15.547-15.545l19.756-5.295l5.678,9.842l0.002,11.342l-19.729,5.303L463.369,423.869z
	 M501.125,397.111l-15.021,4.025l10.998-11l-3.223-5.576l10.467,6.033l0.002,12.107L501.125,397.111z M488.801,375.775
	l-8.988-15.557l10.383,0.021l0.006-0.094l5.145-8.92l8.967,15.547l0.004,17.945L488.801,375.775z M490.193,332.129l-0.004-0.084
	l-0.037,0.01l-10.344,0.002l8.979-15.537l15.523-8.969l0.012,17.943l-8.977,15.563L490.193,332.129z M493.877,307.713l3.226-5.586
	l-10.997-10.994l15.025,4.023l3.221-5.58l0.002,12.084L493.877,307.713z M490.752,302.961l-5.66,9.824l-9.848,5.688l-14.453-14.436
	l-5.74-21.234l21.218,5.678L490.752,302.961z M453.588,277.156l-1.52-5.672l5.682-1.521l11.354,11.354L453.588,277.156z
	 M421.069,240.475l-5.673-1.521l-4.16-15.521l11.354,11.354L421.069,240.475z M411.247,243.102l1.521,5.672l-5.685,1.521
	l-11.353-11.352L411.247,243.102z M409.726,260.127l-4.152,4.152l-15.521-4.16l15.51-4.154L409.726,260.127z M407.092,269.947
	l5.671,1.516l-1.469,5.672l-15.561,4.17L407.092,269.947z M390.42,324.809l10.997-10.998l-4.024,15.02l5.567,3.213l-12.041,0.047
	l-6.066-10.494L390.42,324.809z M374.667,360.203l10.357-0.002l-8.955,15.525l-15.545,8.977l-0.012-17.908l8.979-15.563
	L374.667,360.203z M370.955,384.549l-3.223,5.582l10.998,10.998l-15.027-4.027l-3.22,5.578l-0.005-12.08L370.955,384.549z
	 M376.032,488.481l8.99,15.559l-10.376-0.01v0.096l-5.154,8.936l-8.968-15.518l-0.052-18.033L376.032,488.481z M374.667,532.204
	l10.357-0.004l-8.955,15.525l-15.545,8.979l-0.012-17.91l8.979-15.563L374.667,532.204z M379.746,551.472l9.844-5.686l14.456,14.434
	l5.737,21.229l-21.236-5.689l-14.463-14.463L379.746,551.472z M411.247,587.101l1.521,5.672l-5.685,1.523l-11.353-11.354
	L411.247,587.101z M409.726,604.126l-4.152,4.152l-15.521-4.16l15.51-4.154L409.726,604.126z M407.092,613.946l5.671,1.516
	l-1.469,5.672l-15.561,4.17L407.092,613.946z M415.389,625.298l5.687-1.525l1.522,5.672l-11.365,11.363L415.389,625.298z
	 M452.072,592.792l1.521-5.684l15.508-4.156l-11.359,11.359L452.072,592.792z M455.113,581.44l5.674-21.178L475.25,545.8
	l9.822,5.674l5.68,9.828l-14.441,14.459L455.113,581.44z M497.102,562.138l-3.223-5.578l10.467,6.033l0.002,12.107l-3.223-5.588
	l-15.021,4.023L497.102,562.138z M488.801,547.774l-8.988-15.557l10.383,0.021l0.006-0.094l5.145-8.92l8.967,15.547l0.004,17.945
	L488.801,547.774z M490.193,504.128l-0.004-0.084l-0.037,0.01l-10.344,0.002l8.979-15.537l15.523-8.967l0.012,17.941l-8.977,15.564
	L490.193,504.128z M493.877,479.712l3.226-5.586l-10.997-10.994l15.025,4.023l3.221-5.58l0.002,12.084L493.877,479.712z
	 M504.352,451.404l-5.674,9.833l-19.739-5.273l-15.519-15.521l21.176-5.674l19.758,5.293L504.352,451.404z M494.412,432.139
	l15.021-4.023l-0.002-6.432l6.063,10.406l-6.059,10.5v-6.428L494.412,432.139z M519.865,393.723l-10.467-6.045l-0.003-12.094
	l3.222,5.586l15.023-4.025l-10.998,11L519.865,393.723z M527.637,487.149l-15.025-4.025l-3.219,5.584l-0.004-12.084l10.479-6.055
	l-3.227,5.584L527.637,487.149z M509.432,470.728l-0.01-17.941l8.977-15.562l5.15,8.926l0.004,0.084l0.031-0.008l10.352-0.004
	l-8.957,15.526L509.432,470.728z M526.555,441.191l-5.252-9.004l5.164-9.045l10.373-0.045l5.254,9.002l-5.166,9.041L526.555,441.191
	z M523.549,418.041l-0.006,0.092l-5.145,8.922l-8.969-15.52l-0.002-17.973l15.514,8.945l8.988,15.557L523.549,418.041z
	 M509.391,498.878l5.676-9.836l19.738,5.275l15.52,15.52l-21.178,5.674l-19.758-5.293L509.391,498.878z M522.992,475.321
	l5.662-9.826l9.846-5.686l14.453,14.436l5.738,21.227l-21.236-5.689L522.992,475.321z M550.328,464.454l-10.994-10.996l-5.565,3.211
	l5.981-10.448l12.121-0.004l-5.566,3.215L550.328,464.454z M542.713,441.188l5.229-9.037l-0.006-0.006l-5.199-8.998l17.947,0.008
	l15.621,8.961l-15.598,9.016L542.713,441.188z M539.828,418.113l-6.064-10.494l5.566,3.213l10.996-10.996l-4.023,15.018l5.563,3.211
	L539.828,418.113z M538.494,404.482l-9.82-5.674l-5.68-9.83l14.439-14.459l21.197-5.68l-5.674,21.178L538.494,404.482z
	 M534.853,369.951l-19.78,5.301l-5.678-9.816l-0.002-11.369l19.729-5.299l21.258,5.646L534.853,369.951z M519.322,346.141h-0.004
	l0.012,0.002l-15.02,4.025v6.432l-6.031-10.457v-0.002l6.029-10.449l-0.002,6.428L519.322,346.141z M504.352,279.404l-5.674,9.834
	l-19.739-5.273l-15.519-15.521l21.176-5.674l19.758,5.293L504.352,279.404z M459.271,264.295l-4.163-4.162l4.152-4.154l15.521,4.16
	L459.271,264.295z M457.742,250.313l-5.67-1.52l1.521-5.684l15.508-4.156L457.742,250.313z M456.25,213.613l-15.516,15.584
	l-5.689-21.236l5.293-19.756l11.363,0.004l9.822,5.67L456.25,213.613z M424.489,188.188l5.301,19.732l-5.681,21.199l-15.504-15.504
	l-5.293-19.756l9.823-5.668L424.489,188.188z M401.416,251.814l-21.177,5.674l-19.759-5.293l0.002-11.34l5.675-9.836l19.741,5.277
	L401.416,251.814z M401.464,268.389l-15.545,15.545l-19.756,5.295l-5.678-9.814l-0.002-11.371l19.729-5.299L401.464,268.389z
	 M376.032,316.482l8.99,15.559l-10.376-0.012v0.098l-5.154,8.936l-8.968-15.518l-0.052-18.033L376.032,316.482z M360.526,342.123
	l-0.001-6.432l6.03,10.449h0.007L360.53,356.6v-6.428l-15.022-4.025l0.021-0.006h-0.002L360.526,342.123z M335.718,343.523
	l-21.256-5.646l15.547-15.545l19.756-5.295l5.678,9.842l0.001,11.344L335.718,343.523z M352.218,311.121l-15.021,4.023l10.998-11
	l-3.22-5.574l10.464,5.988l0.002,12.146L352.218,311.121z M339.896,289.783l-8.99-15.559l10.375,0.012v-0.098l5.155-8.936
	l8.968,15.52l0.023,18.014L339.896,289.783z M346.435,255.033l-5.141-8.908l-0.008-0.109l-0.098,0.049l-10.287,0.002l8.979-15.539
	l15.521-8.965l0.011,17.908L346.435,255.033z M336.183,226.793l-9.845,5.688l-14.454-14.434l-5.686-21.219l21.165,5.66
	l14.481,14.482L336.183,226.793z M304.681,191.166l-1.519-5.672l5.643-1.563l11.393,11.393L304.681,191.166z M304.691,210.836
	l-11.354-11.355l1.523-5.686l5.672,1.516L304.691,210.836z M307.32,220.65l5.294,19.758l-9.821,5.668l-11.355,0.006l-5.3-19.734
	l5.681-21.201L307.32,220.65z M283.513,216.504l-4.158-15.514l4.153-4.152l4.161,4.16L283.513,216.504z M264.228,274.213
	l11.355-0.004l5.302,19.736l-5.682,21.197l-15.504-15.504l-5.293-19.756L264.228,274.213z M273.685,320.809l-1.523,5.686
	l-5.658-1.465l-4.174-15.574L273.685,320.809z M272.168,365.797l1.522,5.672l-11.364,11.365l4.156-15.512L272.168,365.797z
	 M275.212,377.135l5.679,21.16l-5.301,19.783l-11.363-0.006l-9.824-5.67l5.273-19.734L275.212,377.135z M264.228,446.213
	l11.355-0.004l5.302,19.735l-5.682,21.197l-15.504-15.504l-5.293-19.755L264.228,446.213z M273.685,492.81l-1.523,5.684
	l-5.658-1.463l-4.174-15.576L273.685,492.81z M272.168,537.796l1.522,5.672l-11.364,11.365l4.156-15.51L272.168,537.796z
	 M275.212,549.134l5.679,21.16l-5.301,19.783l-11.363-0.006l-9.824-5.668l5.273-19.736L275.212,549.134z M283.507,647.784
	l4.158,15.514l-4.151,4.154l-4.175-4.107L283.507,647.784z M286.138,637.968l5.293-19.756l11.363,0.004l9.822,5.67l-5.273,19.736
	l-15.516,15.582L286.138,637.968z M304.695,653.456l-4.156,15.512l-5.687,1.523l-1.521-5.672L304.695,653.456z M306.206,667.45
	l5.675-21.18l14.462-14.461l9.822,5.67l5.68,9.83l-14.439,14.459L306.206,667.45z M348.196,648.144l-3.22-5.574l10.464,5.988
	l0.002,12.146l-3.224-5.584l-15.021,4.023L348.196,648.144z M339.896,633.782l-8.99-15.559l10.375,0.012v-0.098l5.155-8.936
	l8.968,15.52l0.023,18.014L339.896,633.782z M346.435,599.032l-5.141-8.908l-0.008-0.109l-0.098,0.049l-10.287,0.002l8.979-15.539
	l15.521-8.965l0.011,17.908L346.435,599.032z M344.97,565.72l3.227-5.584L337.2,549.138l15.025,4.027l3.22-5.582l0.004,12.086
	L344.97,565.72z M345.507,518.146l0.021-0.006h-0.002l14.999-4.016l-0.001-6.434l6.03,10.449h0.007l-6.033,10.461v-6.43
	L345.507,518.146z M370.955,556.548l-3.223,5.584l10.998,10.998l-15.027-4.029l-3.22,5.578l-0.005-12.08L370.955,556.548z
	 M360.482,584.854l5.675-9.836l19.741,5.277l15.518,15.518l-21.177,5.674l-19.759-5.293L360.482,584.854z M401.464,612.388
	l-15.545,15.545l-19.756,5.295l-5.678-9.814l-0.002-11.369l19.729-5.301L401.464,612.388z M408.583,650.644l15.535-15.533
	l5.679,21.158l-5.302,19.783l-11.361-0.006l-9.824-5.668L408.583,650.644z M440.346,676.073l-5.303-19.734l5.682-21.199l15.502,15.5
	l5.294,19.76l-9.821,5.668L440.346,676.073z M453.588,621.157l-1.52-5.674l5.682-1.521l11.354,11.354L453.588,621.157z
	 M455.107,604.132l4.152-4.154l15.521,4.16l-15.511,4.156L455.107,604.132z M463.369,595.868l15.547-15.545l19.756-5.295
	l5.678,9.842l0.002,11.344l-19.729,5.301L463.369,595.868z M504.311,522.169v6.432l-6.031-10.459v-0.002l6.029-10.449l-0.002,6.428
	l15.016,4.021h-0.004l0.012,0.002L504.311,522.169z M529.121,520.767l21.258,5.646l-15.526,15.537l-19.78,5.301l-5.678-9.814
	l-0.002-11.371L529.121,520.767z M550.328,636.454l-10.994-10.996l-5.565,3.211l5.981-10.449l12.121-0.002l-5.566,3.213
	L550.328,636.454z M536.928,613.14l-10.373,0.051l-5.252-9.004l5.164-9.043l10.373-0.047l5.254,9.002L536.928,613.14z
	 M542.713,613.187l5.229-9.037l-0.006-0.006l-5.199-8.998l17.947,0.008l15.621,8.961l-15.598,9.018L542.713,613.187z
	 M539.828,590.114l-6.064-10.496l5.566,3.213l10.996-10.996l-4.023,15.018l5.563,3.213L539.828,590.114z M538.494,576.481
	l-9.82-5.674l-5.68-9.828l14.439-14.461l21.197-5.678l-5.674,21.176L538.494,576.481z M512.617,553.169l15.023-4.025l-10.998,11
	l3.223,5.578l-10.467-6.045l-0.003-12.092L512.617,553.169z M524.941,574.507l8.988,15.557l-10.381-0.023l-0.006,0.094l-5.145,8.92
	l-8.969-15.518l-0.002-17.975L524.941,574.507z M523.549,618.149l0.004,0.086l0.031-0.01l10.352-0.004l-8.957,15.527l-15.547,8.979
	l-0.01-17.943l8.977-15.561L523.549,618.149z M519.867,642.569l-3.227,5.584l10.996,10.996l-15.025-4.025l-3.219,5.582
	l-0.004-12.082L519.867,642.569z M522.992,647.319l5.662-9.824l9.846-5.686l14.453,14.436l5.738,21.225l-21.236-5.688
	L522.992,647.319z M560.156,673.124l1.52,5.67l-5.645,1.563l-11.391-11.391L560.156,673.124z M560.145,653.454l11.355,11.354
	l-1.522,5.686l-5.659-1.465L560.145,653.454z M557.514,643.638l-5.293-19.756l9.822-5.67l11.355-0.004l5.301,19.736l-5.681,21.197
	L557.514,643.638z M581.322,647.784l4.158,15.514l-4.15,4.154l-4.176-4.107L581.322,647.784z M577.297,613.128l-6.441,0.002
	l10.42-6.072l10.523,6.074l-6.451-0.002l-4.025,15.023L577.297,613.128z M570.854,595.155l6.451,0.004l4.025-15.021l4.024,15.025
	l6.446-0.004l-10.471,6.043L570.854,595.155z M577.172,544.989l4.152-4.152l4.16,4.16l-4.154,15.506L577.172,544.989z
	 M578.707,570.294l-5.301,19.783l-11.363-0.006l-9.824-5.668l5.273-19.736l15.535-15.533L578.707,570.294z M560.143,554.833
	l4.156-15.51l5.686-1.527l1.523,5.672L560.143,554.833z M560.15,535.173l-15.507,4.154l11.358-11.359l5.672,1.52L560.15,535.173z
	 M554.486,522.304l-15.525-4.162l0.012-0.002h-0.002l15.502-4.152l4.154,4.152l0.008,0.01L554.486,522.304z M556.031,508.356
	l-11.391-11.389l15.516,4.158l1.52,5.668L556.031,508.356z M560.145,481.454L571.5,492.81l-1.522,5.684l-5.659-1.463
	L560.145,481.454z M557.514,471.638l-5.293-19.755l9.822-5.67l11.355-0.004l5.301,19.735l-5.681,21.197L557.514,471.638z
	 M581.322,475.784l4.158,15.516l-4.15,4.152l-4.176-4.105L581.322,475.784z M577.297,441.127l-6.441,0.002l10.42-6.07l10.523,6.074
	l-6.451-0.004l-4.025,15.024L577.297,441.127z M570.854,423.156l6.451,0.004l4.025-15.021l4.024,15.023l6.446-0.002l-10.471,6.043
	L570.854,423.156z M577.172,372.99l4.152-4.152l4.16,4.16l-4.154,15.506L577.172,372.99z M578.707,398.295l-5.301,19.783
	l-11.363-0.006l-9.824-5.67l5.273-19.734l15.535-15.533L578.707,398.295z M560.143,382.834l4.156-15.512l5.686-1.525l1.523,5.672
	L560.143,382.834z M560.15,363.172l-15.507,4.156l11.358-11.359l5.672,1.52L560.15,363.172z M554.486,350.303l-15.525-4.16
	l0.012-0.002h-0.002l15.502-4.154l4.154,4.154l0.008,0.01L554.486,350.303z M556.031,336.357l-11.391-11.391l15.516,4.158l1.52,5.67
	L556.031,336.357z M560.145,309.455l11.355,11.354l-1.522,5.686l-5.659-1.465L560.145,309.455z M557.514,299.639l-5.293-19.756
	l9.822-5.67l11.355-0.004l5.301,19.736l-5.681,21.197L557.514,299.639z M581.322,303.785l4.158,15.514l-4.15,4.154l-4.176-4.107
	L581.322,303.785z M577.297,269.127l-6.441,0.004l10.42-6.072l10.523,6.074l-6.451-0.002l-4.025,15.023L577.297,269.127z
	 M570.854,251.156l6.451,0.004l4.025-15.021l4.024,15.025l6.446-0.004l-10.471,6.043L570.854,251.156z M577.172,200.99l4.152-4.152
	l4.16,4.16l-4.154,15.506L577.172,200.99z M578.707,226.295l-5.301,19.783l-11.363-0.006l-9.824-5.668l5.273-19.736l15.535-15.533
	L578.707,226.295z M560.143,210.834l4.156-15.512l5.686-1.525l1.523,5.672L560.143,210.834z M560.15,191.172l-15.507,4.156
	l11.358-11.359l5.672,1.52L560.15,191.172z M550.379,182.414l-15.526,15.537l-19.78,5.301l-5.678-9.814l-0.002-11.371l19.729-5.299
	L550.379,182.414z M509.434,256.115l-0.002-6.432l6.063,10.406l-6.059,10.5v-6.428l-15.023-4.023L509.434,256.115z M484.623,257.516
	l-21.254-5.646l15.547-15.545l19.756-5.295l5.678,9.842l0.002,11.344L484.623,257.516z M501.125,225.113l-15.021,4.023
	l10.998-10.998l-3.223-5.578l10.467,6.033l0.002,12.107L501.125,225.113z M488.801,203.775l-8.988-15.557l10.383,0.021l0.006-0.094
	l5.145-8.92l8.967,15.547l0.004,17.945L488.801,203.775z M490.193,160.129l-0.004-0.084l-0.037,0.01l-10.344,0.002l8.979-15.537
	l15.523-8.967l0.012,17.941l-8.977,15.563L490.193,160.129z M493.877,135.713l3.226-5.586l-10.997-10.994l15.025,4.023l3.221-5.58
	l0.002,12.084L493.877,135.713z M490.752,130.961l-5.66,9.824l-9.848,5.688l-14.453-14.436l-5.74-21.232l21.218,5.676
	L490.752,130.961z M463.414,141.828l10.994,10.996l5.566-3.213l-5.98,10.449l-12.125,0.004l5.569-3.213L463.414,141.828z
	 M471.002,165.143l-5.199,8.99l0.006,0.004l0.002,0.004l5.195,8.994l-17.992-0.008l-15.576-8.959l0.047-0.027l15.551-8.99
	L471.002,165.143z M427.396,174.092l-0.084,0.049l-15.513,8.969l-17.969,0.006l5.192-8.975h0.001l0.006-0.012l-5.261-9.012h17.983
	L427.396,174.092z M374.667,188.205l10.357-0.004l-8.955,15.525l-15.545,8.979l-0.012-17.91l8.979-15.563L374.667,188.205z
	 M370.955,212.549l-3.223,5.584l10.998,10.996l-15.027-4.027l-3.22,5.578l-0.005-12.08L370.955,212.549z M370.422,260.119
	l-15.021,4.023l0.002,6.434l-6.034-10.457l6.029-10.451v6.428L370.422,260.119z M344.97,221.721l3.227-5.584L337.2,205.139
	l15.025,4.027l3.22-5.582l0.004,12.086L344.97,221.721z M355.446,193.412l-5.675,9.836l-19.739-5.277l-15.519-15.518l21.177-5.676
	l19.758,5.293L355.446,193.412z M308.835,164.32l-5.671-1.518l1.522-5.686l15.507-4.156L308.835,164.32z M300.539,152.969
	l-5.687,1.523l-1.521-5.672l11.363-11.361L300.539,152.969z M272.162,154.494l-5.658-1.463l-4.174-15.576l11.355,11.355
	L272.162,154.494z M262.34,157.127l1.519,5.668l-5.643,1.563l-11.391-11.389L262.34,157.127z M260.812,174.141L260.812,174.141
	l0.008,0.01l-4.15,4.152l-15.524-4.16l0.01-0.002l15.502-4.152L260.812,174.141z M258.186,183.969l5.671,1.52l-1.522,5.684
	l-15.506,4.156L258.186,183.969z M260.816,196.842l-5.674,21.176l-14.464,14.465l-9.82-5.674l-5.68-9.828l14.439-14.461
	L260.816,196.842z M241.514,238.832l10.997-10.996l-4.024,15.018l5.563,3.213l-12.038,0.049l-6.063-10.496L241.514,238.832z
	 M244.279,260.1l-5.166,9.041l-10.375,0.051l-5.25-9.004l5.164-9.045l10.371-0.045L244.279,260.1z M241.933,274.221l12.123-0.002
	l-5.567,3.213l4.024,15.021l-10.995-10.994l-5.565,3.211L241.933,274.221z M240.684,287.811l14.453,14.436l5.739,21.225
	l-21.237-5.688l-14.463-14.463l5.662-9.824L240.684,287.811z M262.34,329.125l1.519,5.67l-5.643,1.563l-11.391-11.391
	L262.34,329.125z M260.812,346.141L260.812,346.141l0.008,0.01l-4.15,4.152l-15.524-4.16l0.01-0.002l15.502-4.154L260.812,346.141z
	 M258.186,355.969l5.671,1.52l-1.522,5.684l-15.506,4.156L258.186,355.969z M260.816,368.84l-5.674,21.178l-14.464,14.465
	l-9.82-5.674l-5.68-9.83l14.439-14.459L260.816,368.84z M241.514,410.832l10.997-10.996l-4.024,15.018l5.563,3.211l-12.038,0.049
	l-6.063-10.494L241.514,410.832z M244.279,432.1l-5.166,9.041l-10.375,0.051l-5.25-9.004l5.164-9.045l10.371-0.045L244.279,432.1z
	 M241.933,446.221l12.123-0.004l-5.567,3.215l4.024,15.022l-10.995-10.996l-5.565,3.211L241.933,446.221z M240.684,459.81
	l14.453,14.436l5.739,21.227l-21.237-5.689l-14.463-14.461l5.662-9.826L240.684,459.81z M262.34,501.126l1.519,5.668l-5.643,1.563
	l-11.391-11.389L262.34,501.126z M260.812,518.14L260.812,518.14l0.008,0.01l-4.15,4.154l-15.524-4.162l0.01-0.002l15.502-4.152
	L260.812,518.14z M258.186,527.968l5.671,1.52l-1.522,5.686l-15.506,4.154L258.186,527.968z M260.816,540.841l-5.674,21.176
	l-14.464,14.465l-9.82-5.674l-5.68-9.828l14.439-14.461L260.816,540.841z M241.514,582.831l10.997-10.996l-4.024,15.018l5.563,3.213
	l-12.038,0.049l-6.063-10.496L241.514,582.831z M244.279,604.099l-5.166,9.041l-10.375,0.051l-5.25-9.004l5.164-9.043l10.371-0.047
	L244.279,604.099z M241.933,618.22l12.123-0.002l-5.567,3.213l4.024,15.023l-10.995-10.996l-5.565,3.211L241.933,618.22z
	 M240.684,631.81l14.453,14.436l5.739,21.225l-21.237-5.688l-14.463-14.463l5.662-9.824L240.684,631.81z M262.34,673.124l1.519,5.67
	l-5.643,1.563l-11.391-11.391L262.34,673.124z M260.812,690.14L260.812,690.14l0.008,0.01l-4.15,4.152l-15.524-4.16l0.01-0.002
	l15.502-4.154L260.812,690.14z M258.186,699.968l5.671,1.52l-1.522,5.684l-15.506,4.156L258.186,699.968z M266.483,711.321
	l5.686-1.525l1.522,5.672l-11.364,11.365L266.483,711.321z M294.86,709.792l5.672,1.518l4.159,15.525l-11.354-11.355L294.86,709.792
	z M304.681,707.165l-1.519-5.672l5.643-1.563l11.393,11.393L304.681,707.165z M314.513,698.452l21.177-5.676l19.758,5.293
	l-0.002,11.342l-5.675,9.836l-19.739-5.277L314.513,698.452z M314.462,681.876l15.547-15.545l19.756-5.295l5.678,9.842l0.001,11.344
	l-19.726,5.301L314.462,681.876z M355.401,608.142l0.002,6.434l-6.034-10.457l6.029-10.451v6.428l15.024,4.023L355.401,608.142z
	 M376.032,660.481l8.99,15.559l-10.376-0.01v0.096l-5.154,8.936l-8.968-15.518l-0.052-18.033L376.032,660.481z M374.667,704.202
	l10.357-0.002l-8.955,15.525l-15.545,8.977l-0.012-17.908l8.979-15.563L374.667,704.202z M379.746,723.472l9.844-5.686
	l14.456,14.434l5.737,21.227l-21.236-5.688l-14.463-14.465L379.746,723.472z M401.419,722.431l-10.994-10.996l-5.571,3.217
	l6.04-10.455l12.069-0.004l-5.57,3.215L401.419,722.431z M393.83,699.114l5.192-8.975h0.001l0.006-0.012l-5.261-9.012h17.983
	l15.644,8.975l-0.084,0.049l-15.513,8.969L393.83,699.114z M437.438,690.165l0.047-0.025l15.551-8.99l17.967-0.01l-5.199,8.992
	l0.006,0.004l0.002,0.004l5.195,8.992l-17.992-0.006L437.438,690.165z M473.916,704.167l6.064,10.496l-5.566-3.215l-10.998,10.998
	l4.025-15.02l-5.587-3.213L473.916,704.167z M475.25,717.8l9.822,5.672l5.68,9.83l-14.441,14.459l-21.197,5.68l5.674-21.178
	L475.25,717.8z M497.102,734.136l-3.223-5.576l10.467,6.033l0.002,12.107l-3.223-5.59l-15.021,4.025L497.102,734.136z
	 M488.801,719.774l-8.988-15.557l10.383,0.021l0.006-0.094l5.145-8.92l8.967,15.547l0.004,17.945L488.801,719.774z M490.193,676.128
	l-0.004-0.084l-0.037,0.01l-10.344,0.002l8.979-15.537l15.523-8.969l0.012,17.943l-8.977,15.563L490.193,676.128z M493.877,651.712
	l3.226-5.586l-10.997-10.994l15.025,4.023l3.221-5.58l0.002,12.084L493.877,651.712z M504.352,623.403l-5.674,9.834l-19.739-5.273
	l-15.519-15.521l21.176-5.674l19.758,5.295L504.352,623.403z M494.412,604.138l15.021-4.023l-0.002-6.43l6.063,10.406l-6.059,10.498
	v-6.428L494.412,604.138z M509.391,670.878l5.676-9.836l19.738,5.275l15.52,15.52l-21.178,5.674l-19.758-5.293L509.391,670.878z
	 M538.971,690.14l15.502-4.154l4.154,4.154l0.008,0.01l-4.148,4.152l-15.525-4.16l0.012-0.002H538.971z M556.002,699.968l5.672,1.52
	l-1.523,5.684l-15.507,4.156L556.002,699.968z M564.299,711.321l5.686-1.525l1.523,5.672l-11.365,11.365L564.299,711.321z
	 M592.668,670.491l-1.521-5.672l11.363-11.363l-4.156,15.512L592.668,670.491z M589.643,659.204l-5.689-21.236l5.293-19.756
	l11.363,0.004l9.822,5.67l-5.271,19.736L589.643,659.204z M600.607,590.075l-11.354,0.006l-5.301-19.734l5.682-21.201l15.502,15.506
	l5.293,19.756L600.607,590.075z M591.152,543.479l1.523-5.686l5.672,1.516l4.158,15.525L591.152,543.479z M592.668,498.491
	l-1.521-5.672l11.363-11.361l-4.156,15.51L592.668,498.491z M589.643,487.204l-5.689-21.236l5.293-19.755l11.363,0.004l9.822,5.67
	l-5.271,19.735L589.643,487.204z M600.607,418.076l-11.354,0.004l-5.301-19.734l5.682-21.199l15.502,15.504l5.293,19.756
	L600.607,418.076z M591.152,371.48l1.523-5.688l5.672,1.518l4.158,15.523L591.152,371.48z M592.668,326.492l-1.521-5.674
	l11.363-11.361l-4.156,15.512L592.668,326.492z M589.643,315.205l-5.689-21.236l5.293-19.756l11.363,0.004l9.822,5.67l-5.271,19.736
	L589.643,315.205z M600.607,246.076l-11.354,0.006l-5.301-19.734l5.682-21.201l15.502,15.504l5.293,19.758L600.607,246.076z
	 M591.152,199.48l1.523-5.686l5.672,1.516l4.158,15.525L591.152,199.48z M577.154,147.348l4.168-15.563l4.158,15.514l-4.15,4.154
	L577.154,147.348z M592.668,154.492l-1.521-5.672l11.363-11.361l-4.156,15.51L592.668,154.492z M589.643,143.205l-5.689-21.236
	l5.293-19.756l11.363,0.004l9.822,5.67l-5.271,19.736L589.643,143.205z M585.348,97.131l-4.025,15.023l-4.025-15.025l-6.441,0.002
	l10.42-6.072l10.523,6.074L585.348,97.131z M573.398,102.209l5.301,19.736l-5.681,21.197l-15.505-15.504l-5.293-19.756l9.822-5.668
	L573.398,102.209z M552.953,130.246l5.738,21.227l-21.236-5.689l-14.463-14.461l5.662-9.826l9.846-5.686L552.953,130.246z
	 M550.328,120.455l-10.994-10.996l-5.565,3.211l5.981-10.449l12.121-0.002l-5.566,3.213L550.328,120.455z M524.979,117.75
	l-15.547,8.979l-0.01-17.941l8.977-15.563l5.15,8.928l0.004,0.084l0.031-0.008l10.352-0.006L524.979,117.75z M519.867,126.57
	l-3.227,5.584l10.996,10.996l-15.025-4.025l-3.219,5.584l-0.004-12.084L519.867,126.57z M509.391,154.879l5.676-9.836l19.738,5.275
	l15.52,15.52l-21.178,5.674l-19.758-5.293L509.391,154.879z M519.322,174.141h-0.004l0.012,0.002l-15.02,4.027v6.43l-6.031-10.457
	v-0.002l6.029-10.449l-0.002,6.428L519.322,174.141z M504.352,107.404l-5.674,9.834l-19.739-5.273l-15.519-15.52l21.176-5.676
	l19.758,5.295L504.352,107.404z M469.104,109.316l-15.517-4.158l-1.52-5.672l5.682-1.523L469.104,109.316z M453.598,124.828
	l-11.354-11.355l1.521-5.688l5.672,1.516L453.598,124.828z M456.227,134.641l5.294,19.76l-9.821,5.668l-11.354,0.006l-5.303-19.734
	l5.682-21.199L456.227,134.641z M429.797,140.27l-5.302,19.785l-11.361-0.006l-9.824-5.67l5.273-19.734l15.535-15.533
	L429.797,140.27z M411.233,124.809l4.156-15.51l5.687-1.525l1.522,5.672L411.233,124.809z M411.294,105.135l-15.561,4.17
	l11.358-11.357l5.671,1.516L411.294,105.135z M385.919,111.936l-19.756,5.293l-5.678-9.814l-0.002-11.369l19.729-5.301l21.252,5.645
	L385.919,111.936z M376.032,144.482l8.99,15.559l-10.376-0.01v0.096l-5.154,8.936l-8.968-15.518l-0.052-18.033L376.032,144.482z
	 M360.526,170.125l-0.001-6.434l6.03,10.449h0.007L360.53,184.6v-6.428l-15.022-4.025l0.021-0.006h-0.002L360.526,170.125z
	 M335.718,171.523l-21.256-5.646l15.547-15.545l19.756-5.295l5.678,9.842l0.001,11.344L335.718,171.523z M352.218,139.121
	l-15.021,4.023l10.998-10.998l-3.22-5.576l10.464,5.988l0.002,12.146L352.218,139.121z M339.896,117.783l-8.99-15.559l10.375,0.012
	v-0.096l5.155-8.938l8.968,15.52l0.023,18.014L339.896,117.783z M331.073,112.672l-5.565-3.213l-10.996,10.996l4.023-15.02
	l-5.588-3.213l12.063-0.047L331.073,112.672z M326.342,115.811l9.822,5.672l5.68,9.83l-14.439,14.457l-21.199,5.682l5.675-21.18
	L326.342,115.811z M307.343,127.623l-15.516,15.582l-5.689-21.236l5.293-19.756l11.363,0.004l9.822,5.67L307.343,127.623z
	 M287.533,97.131l-4.025,15.023l-4.025-15.025l-6.441,0.002l10.42-6.072l10.523,6.074L287.533,97.131z M275.583,102.209
	l5.302,19.736l-5.682,21.197l-15.504-15.504l-5.293-19.756l9.822-5.668L275.583,102.209z M255.137,130.246l5.739,21.227
	l-21.237-5.689l-14.463-14.461l5.662-9.826l9.846-5.686L255.137,130.246z M252.513,120.455l-10.995-10.996l-5.565,3.211
	l5.979-10.449l12.123-0.002l-5.567,3.213L252.513,120.455z M227.164,117.75l-15.548,8.979l-0.01-17.941l8.978-15.563l5.15,8.928
	l0.003,0.084l0.03-0.008l10.352-0.006L227.164,117.75z M222.051,126.57l-3.227,5.584l10.996,10.996l-15.025-4.025l-3.218,5.584
	l-0.005-12.084L222.051,126.57z M211.576,154.879l5.674-9.836l19.739,5.275l15.519,15.52l-21.176,5.674l-19.758-5.293
	L211.576,154.879z M252.563,182.414l-15.524,15.537l-19.782,5.301l-5.677-9.814l-0.003-11.371l19.728-5.299L252.563,182.414z
	 M214.802,209.17l15.023-4.025l-11,11l3.224,5.578l-10.467-6.045l-0.002-12.092L214.802,209.17z M227.126,230.508l8.988,15.557
	l-10.382-0.023l-0.005,0.094l-5.146,8.92l-8.967-15.52l-0.004-17.973L227.126,230.508z M220.583,265.225l5.15,8.926l0.003,0.086
	l0.03-0.01l10.352-0.004l-8.955,15.525l-15.548,8.98l-0.01-17.943L220.583,265.225z M222.051,298.57l-3.227,5.584l10.996,10.996
	l-15.025-4.025l-3.218,5.582l-0.005-12.082L222.051,298.57z M211.576,326.879l5.674-9.836l19.739,5.275l15.519,15.52l-21.176,5.674
	l-19.758-5.293L211.576,326.879z M252.563,354.414l-15.524,15.537l-19.782,5.301l-5.677-9.816l-0.003-11.369l19.728-5.299
	L252.563,354.414z M214.802,381.17l15.023-4.025l-11,11l3.224,5.578l-10.467-6.045l-0.002-12.094L214.802,381.17z M227.126,402.508
	l8.988,15.557l-10.382-0.023l-0.005,0.092l-5.146,8.922l-8.967-15.52l-0.004-17.973L227.126,402.508z M220.583,437.225l5.15,8.926
	l0.003,0.084l0.03-0.008l10.352-0.004l-8.955,15.526l-15.548,8.979l-0.01-17.941L220.583,437.225z M222.051,470.569l-3.227,5.584
	l10.996,10.996l-15.025-4.025l-3.218,5.584l-0.005-12.084L222.051,470.569z M211.576,498.878l5.674-9.836l19.739,5.275l15.519,15.52
	l-21.176,5.674l-19.758-5.293L211.576,498.878z M252.563,526.413l-15.524,15.537l-19.782,5.301l-5.677-9.814l-0.003-11.371
	l19.728-5.299L252.563,526.413z M214.802,553.169l15.023-4.025l-11,11l3.224,5.578l-10.467-6.045l-0.002-12.092L214.802,553.169z
	 M227.126,574.507l8.988,15.557l-10.382-0.023l-0.005,0.094l-5.146,8.92l-8.967-15.518l-0.004-17.975L227.126,574.507z
	 M220.583,609.224l5.15,8.926l0.003,0.086l0.03-0.01l10.352-0.004l-8.955,15.527l-15.548,8.979l-0.01-17.943L220.583,609.224z
	 M222.051,642.569l-3.227,5.584l10.996,10.996l-15.025-4.025l-3.218,5.582l-0.005-12.082L222.051,642.569z M211.576,670.878
	l5.674-9.836l19.739,5.275l15.519,15.52l-21.176,5.674l-19.758-5.293L211.576,670.878z M252.563,698.413l-15.524,15.537
	l-19.782,5.301l-5.677-9.814l-0.003-11.371l19.728-5.299L252.563,698.413z M214.802,725.169l15.023-4.025l-11,11l3.224,5.578
	l-10.467-6.045l-0.002-12.094L214.802,725.169z M227.126,746.507l8.988,15.557l-10.382-0.023l-0.005,0.094l-5.146,8.92l-8.967-15.52
	l-0.004-17.973L227.126,746.507z M235.949,751.618l5.565,3.213l10.997-10.996l-4.024,15.018l5.563,3.211l-12.038,0.049
	L235.949,751.618z M240.678,748.481l-9.82-5.674l-5.68-9.83l14.439-14.459l21.198-5.68l-5.674,21.178L240.678,748.481z
	 M259.677,736.667l15.535-15.533l5.679,21.16l-5.301,19.783l-11.363-0.006l-9.824-5.668L259.677,736.667z M279.488,767.159
	l4.025-15.021l4.026,15.023l6.444-0.002l-10.47,6.043l-10.476-6.047L279.488,767.159z M291.438,762.081l-5.3-19.734l5.681-21.201
	l15.502,15.504l5.294,19.756l-9.821,5.67L291.438,762.081z M311.884,734.046l-5.686-21.219l21.165,5.66l14.481,14.482l-5.662,9.822
	l-9.845,5.688L311.884,734.046z M314.507,743.833l10.995,10.996l5.564-3.213l-5.979,10.451l-12.126,0.004l5.571-3.213
	L314.507,743.833z M339.881,746.526l15.521-8.965l0.011,17.908l-8.979,15.563l-5.141-8.908l-0.008-0.109l-0.098,0.049l-10.287,0.002
	L339.881,746.526z M344.97,737.72l3.227-5.584L337.2,721.138l15.025,4.025l3.22-5.58l0.004,12.084L344.97,737.72z M345.507,690.146
	l0.021-0.006h-0.002l14.999-4.018l-0.001-6.432l6.03,10.449h0.007l-6.033,10.459v-6.428L345.507,690.146z M370.955,728.548
	l-3.223,5.582l10.998,10.998l-15.027-4.027l-3.22,5.578l-0.005-12.08L370.955,728.548z M360.482,756.853l5.675-9.834l19.741,5.277
	l15.518,15.518l-21.177,5.674l-19.759-5.293L360.482,756.853z M395.73,754.942l15.517,4.158l1.521,5.67l-5.685,1.523L395.73,754.942
	z M411.236,739.431l11.354,11.354l-1.521,5.689l-5.673-1.521L411.236,739.431z M408.604,729.614l-5.293-19.756l9.823-5.668
	l11.354-0.006l5.301,19.734l-5.681,21.199L408.604,729.614z M435.045,723.96l5.293-19.756l11.363,0.004l9.822,5.67l-5.273,19.734
	l-15.516,15.584L435.045,723.96z M453.602,739.45l-4.156,15.51l-5.686,1.521l-1.561-5.631L453.602,739.45z M453.594,759.108
	l15.508-4.158l-11.359,11.361l-5.67-1.52L453.594,759.108z M478.916,752.323l19.756-5.295l5.678,9.842l0.002,11.342l-19.729,5.303
	l-21.254-5.646L478.916,752.323z M504.311,694.167v6.432l-6.031-10.457v-0.002l6.029-10.449l-0.002,6.428l15.016,4.021h-0.004
	l0.012,0.002L504.311,694.167z M529.121,692.767l21.258,5.646l-15.526,15.537l-19.78,5.301l-5.678-9.814l-0.002-11.371
	L529.121,692.767z M512.617,725.169l15.023-4.025l-10.998,11l3.223,5.578l-10.467-6.045l-0.003-12.094L512.617,725.169z
	 M524.941,746.507l8.988,15.557l-10.381-0.023l-0.006,0.094l-5.145,8.92l-8.969-15.52l-0.002-17.973L524.941,746.507z
	 M533.764,751.618l5.566,3.213l10.996-10.996l-4.023,15.018l5.563,3.211l-12.037,0.049L533.764,751.618z M538.494,748.481
	l-9.82-5.674l-5.68-9.83l14.439-14.459l21.197-5.68l-5.674,21.178L538.494,748.481z M557.492,736.667l15.535-15.533l5.68,21.16
	l-5.301,19.783l-11.363-0.006l-9.824-5.668L557.492,736.667z M577.305,767.159l4.025-15.021l4.024,15.023l6.446-0.002l-10.471,6.043
	l-10.477-6.047L577.305,767.159z M589.254,762.081l-5.301-19.734l5.682-21.201l15.502,15.504l5.293,19.756l-9.822,5.67
	L589.254,762.081z M602.496,707.165l-1.519-5.672l5.644-1.563l11.393,11.393L602.496,707.165z M606.65,680.319l-5.67-1.518
	l1.521-5.686l15.508-4.156L606.65,680.319z M604.021,667.45l5.677-21.18l14.461-14.461l9.822,5.67l5.68,9.83l-14.439,14.459
	L604.021,667.45z M623.322,625.458l-10.996,10.996l4.023-15.02l-5.586-3.213l12.061-0.047l6.064,10.496L623.322,625.458z
	 M620.557,604.188l5.168-9.041l10.391-0.051l5.23,8.973l-5.182,9.076l-10.352,0.047L620.557,604.188z M622.904,590.067
	l-12.127,0.004l5.57-3.213l-4.025-15.023l10.996,10.996l5.564-3.215L622.904,590.067z M624.154,576.479l-14.455-14.434
	l-5.686-21.219l21.166,5.662l14.482,14.48L634,570.792L624.154,576.479z M602.496,535.165l-1.519-5.672l5.644-1.563l11.393,11.393
	L602.496,535.165z M606.65,508.321l-5.67-1.52l1.521-5.686l15.508-4.156L606.65,508.321z M604.021,495.45l5.677-21.18l14.461-14.461
	l9.822,5.672l5.68,9.83l-14.439,14.457L604.021,495.45z M623.322,453.458l-10.996,10.996l4.023-15.019l-5.586-3.213l12.061-0.047
	l6.064,10.495L623.322,453.458z M620.557,432.189l5.168-9.041l10.391-0.051l5.23,8.973l-5.182,9.076l-10.352,0.047L620.557,432.189z
	 M622.904,418.068l-12.127,0.004l5.57-3.213l-4.025-15.025l10.996,10.996l5.564-3.213L622.904,418.068z M624.154,404.48
	l-14.455-14.434l-5.686-21.221l21.166,5.662l14.482,14.482L634,398.793L624.154,404.48z M602.496,363.164l-1.519-5.67l5.644-1.563
	l11.393,11.393L602.496,363.164z M606.65,336.32l-5.67-1.518l1.521-5.686l15.508-4.156L606.65,336.32z M604.021,323.451l5.677-21.18
	l14.461-14.461l9.822,5.67l5.68,9.83l-14.439,14.459L604.021,323.451z M623.322,281.459l-10.996,10.996l4.023-15.02l-5.586-3.213
	l12.061-0.047l6.064,10.496L623.322,281.459z M620.557,260.189l5.168-9.041l10.391-0.051l5.23,8.973l-5.182,9.076l-10.352,0.047
	L620.557,260.189z M622.904,246.068l-12.127,0.004l5.57-3.213l-4.025-15.023l10.996,10.996l5.564-3.215L622.904,246.068z
	 M624.154,232.48l-14.455-14.434l-5.686-21.219l21.166,5.66l14.482,14.482L634,226.793L624.154,232.48z M602.496,191.166
	l-1.519-5.672l5.644-1.563l11.393,11.393L602.496,191.166z M606.65,164.32l-5.67-1.518l1.521-5.686l15.508-4.156L606.65,164.32z
	 M604.021,151.451l5.677-21.18l14.461-14.461l9.822,5.672l5.68,9.83l-14.439,14.457L604.021,151.451z M623.322,109.459
	l-10.996,10.996l4.023-15.02l-5.586-3.213l12.061-0.047l6.064,10.496L623.322,109.459z M614.789,88.01l-0.076,0.133l0.006,0.006
	l5.195,8.996l-17.99-0.008l-15.578-8.961l0.287-0.166H614.789z M576.121,88.01l0.184,0.107l-15.598,9.016l-17.994,0.055l5.229-9.037
	l-0.006-0.006l-0.078-0.135H576.121z M542.043,88.01l0.051,0.09l-5.166,9.041l-10.373,0.051l-5.252-9.004l0.102-0.178H542.043z
	 M515.447,88.01l0.047,0.082l-6.059,10.498v-6.428l-15.023-4.023l0.481-0.129H515.447z M474.299,88.01l0.482,0.129l-15.511,4.156
	l-4.163-4.162l0.123-0.123H474.299z M448.045,88.01l-0.123,0.123l5.68,5.682l-7.756,2.078l2.076,7.746l-7.746-2.076l-2.043,7.801
	l-5.713-5.713v-0.016l-0.006-0.006l-5.67,5.672l-2.075-7.75l-7.761,2.08l2.08-7.758l-7.747-2.076l5.672-5.672l-0.115-0.115H448.045z
	 M409.609,88.01l0.117,0.117l-4.152,4.152l-15.521-4.16l0.408-0.109H409.609z M370.013,88.01l0.409,0.109l-15.021,4.023l0.002,6.436
	l-6.034-10.459l0.063-0.109H370.013z M343.495,88.01l0.036,0.061l-5.182,9.076l-10.352,0.047l-5.256-9.002l0.104-0.182H343.495z
	 M316.974,88.01l-0.078,0.133l0.007,0.006l5.195,8.996l-17.991-0.008l-15.577-8.961l0.287-0.166H316.974z M278.304,88.01
	l0.186,0.107l-15.598,9.016l-17.996,0.055l5.229-9.037l-0.006-0.006l-0.079-0.135H278.304z M244.226,88.01l0.053,0.09l-5.166,9.041
	l-10.375,0.051l-5.25-9.004l0.102-0.178H244.226z M211.492,88.01h6.14l0.047,0.082l-6.058,10.498v-6.428l-0.129-0.033V88.01z
	 M211.492,171.459l10.014,2.682h-0.002l0.011,0.002l-10.022,2.688V171.459z M211.492,256.148l0.126-0.033l-0.002-6.432l6.063,10.406
	l-6.058,10.5v-6.428l-0.129-0.035V256.148z M211.492,343.459l10.014,2.682h-0.002l0.011,0.002l-10.022,2.688V343.459z
	 M211.492,428.148l0.126-0.033l-0.002-6.432l6.063,10.406l-6.058,10.5v-6.428l-0.129-0.035V428.148z M211.492,515.458l10.014,2.682
	h-0.002l0.011,0.002l-10.022,2.688V515.458z M211.492,600.147l0.126-0.033l-0.002-6.43l6.063,10.406l-6.058,10.498v-6.428
	l-0.129-0.033V600.147z M211.492,687.458l10.014,2.682h-0.002l0.011,0.002l-10.022,2.688V687.458z M211.492,776.188v-4.041
	l0.126-0.033l-0.002-6.432l6.063,10.406l-0.057,0.1H211.492z M223.489,776.188l-0.001-0.002l5.164-9.045l10.371-0.045l5.256,9.002
	l-0.051,0.09H223.489z M250.103,776.188l0.023-0.039l-0.006-0.006l-5.198-8.998l17.947,0.008l15.621,8.961l-0.127,0.074H250.103z
	 M288.555,776.188l-0.024-0.014l15.599-9.018l17.966-0.008l-5.199,8.992l0.007,0.006l0.023,0.041H288.555z M322.743,776.188
	l5.167-9.041l10.389-0.051l5.232,8.973l-0.068,0.119H322.743z M349.41,776.188l-0.041-0.07l6.029-10.451v6.426l15.024,4.025
	l-0.261,0.07H349.41z M390.313,776.188l-0.26-0.07l15.51-4.154l4.163,4.162l-0.062,0.063H390.313z M416.849,776.188l0.063-0.064
	l-5.681-5.68l7.758-2.08l-2.076-7.746l7.748,2.076l2.077-7.76l5.681,5.68v0.016l5.67-5.67l2.076,7.746l7.76-2.08l-2.078,7.756
	l7.785,2.037l-5.711,5.711l0.059,0.059H416.849z M455.164,776.188l-0.057-0.057l4.152-4.154l15.521,4.16l-0.189,0.051H455.164z
	 M494.602,776.188l-0.189-0.051l15.021-4.023l-0.002-6.432l6.063,10.406l-0.058,0.1H494.602z M521.305,776.188l-0.002-0.002
	l5.164-9.045l10.373-0.045l5.254,9.002l-0.051,0.09H521.305z M547.918,776.188l0.023-0.039l-0.006-0.006l-5.199-8.998l17.947,0.008
	l15.621,8.961l-0.127,0.074H547.918z M586.371,776.188l-0.025-0.014l15.6-9.018l17.965-0.008l-5.197,8.992l0.006,0.006l0.023,0.041
	H586.371z M620.559,776.188l5.166-9.041l10.391-0.051l5.23,8.973l-0.068,0.119H620.559z M653.209,776.188h-5.984l-0.041-0.07
	l6.025-10.441V776.188z M653.209,755.507l-8.959,15.525l-5.141-8.908l-0.007-0.109l-0.099,0.049l-10.285,0.002l8.979-15.539
	l15.512-8.959V755.507z M653.209,731.7l-10.424,6.02l3.227-5.584l-10.996-10.998l15.025,4.025l3.168-5.49V731.7z M653.209,709.503
	l-5.623,9.744l-19.738-5.277l-15.52-15.518l21.178-5.676l19.703,5.279V709.503z M653.209,692.794l-9.887-2.648l0.023-0.006h-0.002
	l9.865-2.643V692.794z M653.209,682.235l-19.676,5.287l-21.256-5.646l15.547-15.545l19.756-5.295l5.629,9.754V682.235z
	 M653.209,660.618l-3.176-5.498l-15.02,4.023l10.998-11l-3.221-5.574l10.418,5.961V660.618z M653.209,642.716l-15.498-8.934
	l-8.988-15.559l10.373,0.012v-0.098l5.156-8.936l8.957,15.5V642.716z M653.209,614.56l-6.025-10.441l6.025-10.441V614.56z
	 M653.209,583.507l-8.959,15.525l-5.141-8.908l-0.007-0.109l-0.099,0.049l-10.285,0.002l8.979-15.539l15.512-8.959V583.507z
	 M653.209,559.7l-10.424,6.02l3.227-5.584l-10.996-10.998l15.025,4.027l3.168-5.492V559.7z M653.209,537.503l-5.623,9.744
	l-19.738-5.277l-15.52-15.518l21.178-5.676l19.703,5.279V537.503z M653.209,520.796l-9.887-2.65l0.023-0.006h-0.002l9.865-2.641
	V520.796z M653.209,510.235l-19.676,5.287l-21.256-5.646l15.547-15.545l19.756-5.293l5.629,9.754V510.235z M653.209,488.618
	l-3.176-5.498l-15.02,4.023l10.998-10.998l-3.221-5.576l10.418,5.961V488.618z M653.209,470.716l-15.498-8.934l-8.988-15.558
	l10.373,0.01v-0.096l5.156-8.938l8.957,15.501V470.716z M653.209,442.559l-6.025-10.439l6.025-10.443V442.559z M653.209,411.508
	l-8.959,15.525l-5.141-8.908l-0.007-0.109l-0.099,0.047l-10.285,0.004l8.979-15.539l15.512-8.961V411.508z M653.209,387.701
	l-10.424,6.02l3.227-5.584l-10.996-10.998l15.025,4.025l3.168-5.49V387.701z M653.209,365.504l-5.623,9.744l-19.738-5.277
	l-15.52-15.518l21.178-5.676l19.703,5.279V365.504z M653.209,348.795l-9.887-2.648l0.023-0.006h-0.002l9.865-2.643V348.795z
	 M653.209,338.236l-19.676,5.287l-21.256-5.646l15.547-15.545l19.756-5.295l5.629,9.754V338.236z M653.209,316.619l-3.176-5.498
	l-15.02,4.023l10.998-11l-3.221-5.574l10.418,5.961V316.619z M653.209,298.717l-15.498-8.934l-8.988-15.559l10.373,0.012v-0.098
	l5.156-8.936l8.957,15.5V298.717z M653.209,270.561l-6.025-10.441l6.025-10.441V270.561z M653.209,239.508l-8.959,15.525
	l-5.141-8.908l-0.007-0.109l-0.099,0.049l-10.285,0.002l8.979-15.539l15.512-8.959V239.508z M653.209,215.701l-10.424,6.02
	l3.227-5.584l-10.996-10.998l15.025,4.027l3.168-5.492V215.701z M653.209,193.504l-5.623,9.744l-19.738-5.277l-15.52-15.518
	l21.178-5.676l19.703,5.279V193.504z M653.209,176.795l-9.887-2.648l0.023-0.006h-0.002l9.865-2.643V176.795z M653.209,166.236
	l-19.676,5.287l-21.256-5.646l15.547-15.545l19.756-5.295l5.629,9.756V166.236z M653.209,144.619l-3.176-5.498l-15.02,4.023
	l10.998-10.998l-3.221-5.576l10.418,5.961V144.619z M653.209,126.717l-15.498-8.934l-8.988-15.559l10.373,0.012v-0.096l5.156-8.938
	l8.957,15.5V126.717z M653.209,98.561l-6.025-10.441l0.064-0.109h5.961V98.561z"/>
</svg>
