<?xml version="1.0" encoding="utf-8"?>
<!-- Generator: Adobe Illustrator 14.0.0, SVG Export Plug-In . SVG Version: 6.00 Build 43363)  -->
<!DOCTYPE svg PUBLIC "-//W3C//DTD SVG 1.1//EN" "http://www.w3.org/Graphics/SVG/1.1/DTD/svg11.dtd">
<svg version="1.1" id="Layer_1" xmlns="http://www.w3.org/2000/svg" xmlns:xlink="http://www.w3.org/1999/xlink" x="0px" y="0px"
	 width="864px" height="864px" viewBox="0 0 864 864" enable-background="new 0 0 864 864" xml:space="preserve">
<path d="M151.371,72.1v719.999h258.707V72.1H151.371z M384.008,187.527l8.126,13.949l-8.12,14.072v-8.615l-20.138-5.393
	l20.134-5.395L384.008,187.527z M384.008,418.084l8.126,13.949l-8.12,14.072v-8.615l-20.138-5.393l20.134-5.395L384.008,418.084z
	 M384.008,648.64l8.126,13.949l-8.12,14.074v-8.615l-20.138-5.395l20.134-5.393L384.008,648.64z M177.541,676.646l-8.088-14.018
	l8.082-14.01v8.615l20.139,5.395l-20.136,5.393L177.541,676.646z M177.541,446.088l-8.088-14.018l8.082-14.01v8.615l20.139,5.395
	l-20.136,5.393L177.541,446.088z M177.541,215.531l-8.088-14.018l8.082-14.008v8.613l20.139,5.395l-20.136,5.393L177.541,215.531z
	 M294.812,98.307l-8.646-0.004l-5.388,20.107v-0.021l-0.009,0.031l-5.395-20.141l-8.632,0.004l13.964-8.139L294.812,98.307z
	 M320.235,105.131l16.166-0.064l8.13,14.07l-7.463-4.309l-14.74,14.74l5.394-20.131L320.235,105.131z M338.189,123.342l13.166,7.604
	l7.613,13.176l-19.355,19.381l-28.416,7.613l7.605-28.387L338.189,123.342z M275.207,698.612l5.563-5.564l0.009,0.002l5.588,5.523
	l-5.587,20.857l-0.001-0.004v-0.016L275.207,698.612z M280.77,683.417l-7.6,7.602l-2.782-10.389l-10.404,2.789l2.789-10.398
	l-10.385-2.783l7.604-7.602l-7.615-7.613l10.398-2.787l-2.781-10.387l10.385,2.785l2.785-10.402l7.614,7.613v-0.01l7.601-7.57
	l2.783,10.385l10.402-2.789l-2.786,10.398l10.436,2.729l-7.654,7.656l7.613,7.617l-10.399,2.785l2.783,10.385l-10.383-2.785
	l-2.737,10.459L280.77,683.417z M198.391,726.403l-14.032-8.027l-0.003-16.287l4.32,7.49l20.136-5.398l-14.744,14.746
	L198.391,726.403z M191.963,701.646l-7.61-13.154l-0.002-15.242l26.445-7.104l28.487,7.566l-20.837,20.838L191.963,701.646z
	 M198.391,495.845l-14.032-8.025l-0.003-16.287l4.32,7.488l20.136-5.396l-14.744,14.746L198.391,495.845z M198.391,265.289
	l-14.032-8.025l-0.003-16.287l4.32,7.488l20.136-5.396l-14.744,14.746L198.391,265.289z M275.201,165.52l5.563-20.758l5.579,20.791
	l-5.564,5.59v-0.045L275.201,165.52z M280.777,180.729l0.001,0.023l7.601-7.6l2.783,10.383l10.402-2.787l-2.786,10.396l10.436,2.73
	l-7.654,7.656l7.613,7.615l-10.399,2.787l2.783,10.383l-10.383-2.783l-2.737,10.457l-7.658-7.66v-0.02l-0.008-0.008l-7.6,7.604
	l-2.782-10.389l-10.404,2.789l2.789-10.4l-10.385-2.781l7.604-7.604l-7.615-7.613l10.398-2.787l-2.781-10.385l10.385,2.785
	l2.785-10.404L280.777,180.729z M293.886,167.645l15.285-15.283l-5.572,20.789l-7.62,2.043L293.886,167.645z M325.533,316.816
	l0.003,0.004h-0.001l6.967,12.055l-24.119-0.008l-20.877-12.012l0.06-0.035h0.002l20.847-12.051l24.081-0.012l-6.968,12.053
	L325.533,316.816z M309.172,439.703l-10.399,2.785l2.783,10.386l-10.383-2.784l-2.737,10.458l-7.658-7.66v-0.021l-0.008-0.008
	l-7.6,7.604l-2.782-10.388l-10.404,2.788l2.789-10.399l-10.385-2.781l7.604-7.604l-7.615-7.613l10.398-2.787l-2.781-10.385
	l10.385,2.785l2.785-10.404l7.612,7.611l7.603-7.576l2.783,10.383l10.402-2.787l-2.786,10.396l10.436,2.73l-7.654,7.656
	L309.172,439.703z M325.533,547.372l0.003,0.006h-0.001l6.967,12.055l-24.119-0.01l-20.877-12.01l0.06-0.035h0.002l20.847-12.053
	l24.081-0.012l-6.968,12.053L325.533,547.372z M291.923,621.179l-7.628-28.467l7.097-26.48l15.23,0.004l13.168,7.6l-7.068,26.453
	L291.923,621.179z M309.171,613.476l-5.572,20.789l-7.62,2.041l-2.093-7.549L309.171,613.476z M246.815,649.46l-15.218-15.217
	l20.799,5.572l2.038,7.602L246.815,649.46z M250.359,662.638l-5.566,5.564l-20.806-5.574l20.792-5.57L250.359,662.638z
	 M252.382,613.45l15.22,15.219l-2.039,7.625l-7.604-2.037L252.382,613.45z M248.856,600.292l-7.096-26.482l13.167-7.598
	l15.219-0.006l7.107,26.451l-7.615,28.416L248.856,600.292z M236.019,547.36l-7.052-12.078h24.106l20.971,12.029l-0.113,0.066
	l-20.795,12.021l-24.085,0.008l6.959-12.029h0.001L236.019,547.36L236.019,547.36z M236.019,316.805l-7.052-12.078h24.106
	l20.971,12.029l-0.113,0.064l-20.795,12.021l-24.085,0.008l6.959-12.029h0.001L236.019,316.805L236.019,316.805z M246.828,214.688
	l7.602,2.033l-1.969,7.602l-20.857,5.588L246.828,214.688z M244.792,207.09l-20.806-5.576l20.792-5.57l5.58,5.58L244.792,207.09z
	 M257.949,229.904l7.623-2.045l2.04,7.602l-15.233,15.232L257.949,229.904z M269.65,243.057l7.613,28.363l-7.106,26.518
	l-15.229-0.008l-13.169-7.598l7.068-26.453L269.65,243.057z M275.375,328.834l-8.632,0.004l13.964-8.137l0.071,0.041v0.021
	l14.034,8.1l-8.646-0.004l-5.388,20.086L275.375,328.834z M286.342,396.109l-5.564,5.545l-5.577-5.578l5.557-20.732L286.342,396.109
	z M266.735,304.744l8.649,0.008l5.396-20.111l5.396,20.137l8.64-0.004l-14.024,8.092L266.735,304.744z M280.779,258.318
	l-0.001-0.006v-0.016l-5.571-20.797l5.571-5.535v-0.014l5.588,5.508L280.779,258.318z M254.927,335.654l15.219-0.006l7.107,26.453
	l-7.615,28.416l-20.782-20.783l-7.096-26.482L254.927,335.654z M267.602,398.111l-2.039,7.627l-7.604-2.039l-5.576-20.807
	L267.602,398.111z M252.396,409.26l2.038,7.602l-7.619,2.041l-15.218-15.217L252.396,409.26z M250.359,432.08l-5.566,5.566
	l-20.806-5.576l20.792-5.57L250.359,432.08z M246.828,445.242l7.602,2.035l-1.969,7.601l-20.857,5.59L246.828,445.242z
	 M257.949,460.46l7.623-2.045l2.04,7.604l-15.233,15.232L257.949,460.46z M269.65,473.612l7.613,28.363l-7.106,26.52l-15.229-0.008
	l-13.169-7.6l7.068-26.453L269.65,473.612z M275.375,559.392l-8.632,0.004l13.964-8.139l14.105,8.164l-8.646-0.004l-5.388,20.1
	v-0.014L275.375,559.392z M266.735,535.3l8.649,0.008l5.394-20.137v0.021l5.397,20.141l8.64-0.004l-14.037,8.102L266.735,535.3z
	 M280.771,488.757l-5.564-20.701l5.553-5.555l5.606,5.516L280.771,488.757z M280.778,605.841l5.564,20.826l-5.563,5.564v0.008
	l-5.578-5.605L280.778,605.841z M306.621,528.515l-15.219,0.006l-7.107-26.453l7.615-28.416l20.78,20.779l7.097,26.484
	L306.621,528.515z M293.946,466.056l2.041-7.627l7.604,2.035l5.576,20.813L293.946,466.056z M295.979,405.75l-2.093-7.549
	l15.285-15.283l-5.572,20.789L295.979,405.75z M291.923,390.621l-7.628-28.467l7.097-26.48l15.23,0.006l13.168,7.6l-7.068,26.453
	L291.923,390.621z M306.621,297.959l-15.219,0.006l-7.107-26.453l7.615-28.416l20.78,20.779l7.097,26.484L306.621,297.959z
	 M293.946,235.498l2.041-7.625l7.604,2.035l5.576,20.813L293.946,235.498z M265.563,175.182l-7.604-2.039l-5.576-20.807
	l15.22,15.221L265.563,175.182z M252.396,178.703l2.038,7.602l-7.619,2.041l-15.218-15.217L252.396,178.703z M239.217,190.381
	l-28.386,7.605l-26.485-7.094l0.003-15.201l7.606-13.184l26.462,7.072L239.217,190.381z M239.284,212.6l-20.837,20.838
	l-26.483,7.096l-7.61-13.156l-0.002-15.24l26.445-7.104L239.284,212.6z M221.938,239.553l28.415-7.615l-7.606,28.389l-19.386,19.389
	l-13.164-7.605l-7.613-13.176L221.938,239.553z M224.48,288.227l14.741-14.74l-5.394,20.131l7.461,4.307l-16.141,0.064l-8.13-14.068
	L224.48,288.227z M228.189,316.732l-0.051,0.088h0.001l-6.878,12.031l-13.929,0.07l-7.013-12.025l0.043-0.076l6.902-12.094h13.908
	L228.189,316.732z M225.117,335.664l16.177-0.006l-7.465,4.309l5.396,20.137l-14.737-14.738l-7.468,4.311L225.117,335.664z
	 M223.367,353.879l19.377,19.348l7.69,28.455l-28.467-7.625l-19.386-19.389l7.589-13.168L223.367,353.879z M239.217,420.938
	l-28.386,7.605l-26.485-7.094l0.003-15.201l7.606-13.184l26.462,7.072L239.217,420.938z M239.284,443.156l-20.837,20.837
	l-26.483,7.096l-7.61-13.154l-0.002-15.241l26.445-7.104L239.284,443.156z M221.938,470.108l28.415-7.613l-7.606,28.387
	l-19.386,19.389l-13.164-7.604l-7.613-13.178L221.938,470.108z M224.48,518.782l14.741-14.74l-5.394,20.133l7.461,4.305
	l-16.141,0.064l-8.13-14.066L224.48,518.782z M228.189,547.288l-0.051,0.09h0.001l-6.878,12.031l-13.929,0.07l-7.013-12.027
	l0.043-0.074l6.902-12.096h13.908L228.189,547.288z M225.117,566.222l16.177-0.006l-7.465,4.309l5.396,20.137l-14.737-14.738
	l-7.468,4.311L225.117,566.222z M223.367,584.435l19.377,19.35l7.69,28.453l-28.467-7.625l-19.386-19.387l7.589-13.168
	L223.367,584.435z M239.217,651.495l-28.386,7.605l-26.485-7.096l0.003-15.201l7.606-13.182l26.462,7.072L239.217,651.495z
	 M246.828,675.8l7.602,2.033l-1.969,7.602l-20.857,5.59L246.828,675.8z M257.949,691.017l7.623-2.045l2.04,7.604l-15.233,15.232
	L257.949,691.017z M295.987,688.985l7.604,2.035l5.576,20.813l-15.221-15.221L295.987,688.985z M309.152,685.466l-2.035-7.604
	l7.616-2.041l15.22,15.219L309.152,685.466z M311.191,662.646l5.564-5.568l20.806,5.576l-20.79,5.57L311.191,662.646z
	 M314.721,649.483l-7.601-2.039l2.039-7.617l20.787-5.572L314.721,649.483z M311.197,632.229l7.605-28.389l19.387-19.387
	l13.166,7.605l7.613,13.176l-19.355,19.379L311.197,632.229z M337.068,575.942l-14.74,14.74l5.394-20.133l-7.486-4.307l16.166-0.063
	l8.13,14.068L337.068,575.942z M333.362,547.433l0.031-0.055l6.896-12.063l13.906-0.07l7.037,12.07l-0.035,0.063h-0.001
	l-6.886,12.063l-13.902,0.061L333.362,547.433z M336.506,528.503l-16.254,0.004l7.468-4.305l-5.396-20.139l14.736,14.738
	l7.461-4.305L336.506,528.503z M338.182,510.29l-19.374-19.35l-7.693-28.463l28.442,7.609l19.412,19.41l-7.589,13.17L338.182,510.29
	z M309.152,454.909l-2.035-7.604l7.616-2.041l15.22,15.22L309.152,454.909z M311.191,432.088l5.564-5.566l20.806,5.576l-20.79,5.57
	L311.191,432.088z M314.721,418.926l-7.601-2.037l2.039-7.619l20.787-5.572L314.721,418.926z M311.197,401.672l7.605-28.387
	l19.387-19.387l13.166,7.604l7.613,13.176l-19.355,19.381L311.197,401.672z M337.068,345.385l-14.74,14.74l5.394-20.131
	l-7.486-4.309l16.166-0.063l8.13,14.07L337.068,345.385z M333.362,316.877l0.031-0.057l6.896-12.063l13.906-0.068l7.037,12.068
	l-0.035,0.063h-0.001l-6.886,12.063l-13.902,0.061L333.362,316.877z M336.506,297.947l-16.254,0.004l7.468-4.307l-5.396-20.139
	l14.736,14.74l7.461-4.307L336.506,297.947z M338.182,279.732l-19.374-19.348l-7.693-28.463l28.442,7.609l19.412,19.41
	l-7.589,13.168L338.182,279.732z M309.152,224.352l-2.035-7.604l7.616-2.041l15.22,15.221L309.152,224.352z M311.191,201.533
	l5.564-5.568l20.806,5.576l-20.79,5.57L311.191,201.533z M314.721,188.369l-7.601-2.037l2.039-7.619l20.787-5.572L314.721,188.369z
	 M312.722,139.176l-20.799,20.889l-7.628-28.467l7.097-26.48l15.23,0.006l13.168,7.6L312.722,139.176z M270.146,105.092
	l7.107,26.453l-7.615,28.416l-20.782-20.783l-7.096-26.482l13.167-7.598L270.146,105.092z M242.744,142.67l7.69,28.455
	l-28.467-7.625l-19.386-19.389l7.589-13.168l13.196-7.621L242.744,142.67z M239.224,129.547l-14.737-14.738l-7.468,4.311
	l8.098-14.012l16.177-0.006l-7.465,4.309L239.224,129.547z M205.244,125.924l-20.838,12.033l-0.014-24.006l12.034-20.863
	l6.938,12.027l13.884-0.004L205.244,125.924z M198.386,137.748l-4.319,7.484l14.742,14.742l-20.144-5.4l-4.315,7.479l-0.007-16.193
	L198.386,137.748z M205.193,277.066l12.051,20.854l-13.908-0.012v0.129l-6.909,11.977l-12.021-20.801l-0.068-24.172L205.193,277.066
	z M203.364,335.672l13.884-0.004l-12.004,20.813l-20.838,12.033l-0.014-24.008l12.034-20.861L203.364,335.672z M198.386,368.305
	l-4.319,7.484l14.742,14.742l-20.144-5.4l-4.315,7.477l-0.007-16.191L198.386,368.305z M205.193,507.622l12.051,20.855
	l-13.908-0.014v0.129l-6.909,11.979l-12.021-20.801l-0.068-24.172L205.193,507.622z M203.364,566.229l13.884-0.004l-12.004,20.811
	l-20.838,12.033l-0.014-24.006l12.034-20.861L203.364,566.229z M198.386,598.862l-4.319,7.482l14.742,14.742l-20.144-5.398
	l-4.315,7.477l-0.007-16.191L198.386,598.862z M205.193,738.181l12.051,20.854l-13.908-0.014v0.129l-6.909,11.979l-12.021-20.801
	l-0.068-24.172L205.193,738.181z M217.018,745.034l7.462,4.305l14.741-14.74l-5.394,20.133l7.461,4.305l-16.141,0.064
	L217.018,745.034z M223.361,740.827l-13.164-7.604l-7.613-13.178l19.354-19.381l28.415-7.613l-7.606,28.387L223.361,740.827z
	 M248.827,724.993l20.823-20.824l7.613,28.363l-7.106,26.52l-15.229-0.008l-13.169-7.6L248.827,724.993z M275.384,765.864
	l5.387-20.111l5.404,20.137l8.64-0.004l-14.019,8.09l-14.062-8.117L275.384,765.864z M291.402,759.077l-7.107-26.451l7.615-28.418
	l20.78,20.779l7.097,26.484l-13.166,7.6L291.402,759.077z M318.808,721.497l-7.693-28.463l28.442,7.609l19.412,19.41l-7.589,13.17
	l-13.198,7.623L318.808,721.497z M322.325,734.62l14.736,14.74l7.461-4.307l-8.016,14.006l-16.254,0.004l7.468-4.305L322.325,734.62
	z M356.336,738.229l20.809-12.021l0.015,24.051l-12.034,20.861l-6.904-11.969l-0.005-0.111l-0.051,0.014l-13.865,0.002
	L356.336,738.229z M363.158,726.423l4.325-7.486l-14.741-14.738l20.141,5.395l4.315-7.48l0.005,16.197L363.158,726.423z
	 M377.2,688.478l-7.606,13.184l-26.459-7.07l-20.803-20.805l28.387-7.605l26.484,7.096L377.2,688.478z M350.754,659.138
	l-28.491-7.568l20.839-20.838l26.482-7.098l7.611,13.191l0.002,15.205L350.754,659.138z M372.873,615.702l-20.134,5.396
	l14.742-14.746l-4.319-7.475l14.03,8.088l0.001,16.229L372.873,615.702z M356.355,587.101l-12.049-20.852l13.917,0.029l0.007-0.127
	l6.896-11.955l12.021,20.838l0.004,24.057L356.355,587.101z M358.221,528.595l-0.005-0.113l-0.051,0.016l-13.865,0.002
	l12.036-20.828l20.809-12.02l0.015,24.051l-12.034,20.861L358.221,528.595z M363.158,495.866l4.325-7.486l-14.741-14.738
	l20.141,5.395l4.315-7.48l0.005,16.197L363.158,495.866z M377.2,457.921l-7.606,13.182l-26.459-7.068l-20.803-20.806l28.387-7.605
	l26.484,7.096L377.2,457.921z M350.754,428.58l-28.491-7.568l20.839-20.838l26.482-7.098l7.611,13.193l0.002,15.205L350.754,428.58z
	 M372.873,385.145l-20.134,5.396l14.742-14.744l-4.319-7.477l14.03,8.088l0.001,16.229L372.873,385.145z M356.355,356.545
	l-12.049-20.854l13.917,0.029l0.007-0.127l6.896-11.955l12.021,20.84l0.004,24.055L356.355,356.545z M358.221,298.039l-0.005-0.113
	l-0.051,0.014l-13.865,0.004l12.036-20.828l20.809-12.02l0.015,24.051l-12.034,20.861L358.221,298.039z M363.158,265.311
	l4.325-7.486l-14.741-14.738l20.141,5.395l4.315-7.482l0.005,16.197L363.158,265.311z M377.2,227.363l-7.606,13.184l-26.459-7.07
	l-20.803-20.803l28.387-7.607l26.484,7.096L377.2,227.363z M350.754,198.023l-28.491-7.568l20.839-20.838l26.482-7.098l7.611,13.193
	l0.002,15.205L350.754,198.023z M372.873,154.59l-20.134,5.395l14.742-14.744l-4.319-7.477l14.03,8.088l0.001,16.229L372.873,154.59
	z M356.355,125.988l-12.049-20.854l13.917,0.029l0.007-0.125l6.896-11.957l12.021,20.84l0.004,24.055L356.355,125.988z
	 M361.196,86.264l-6.886,12.063l-13.902,0.061l-7.046-12.066l0.031-0.057H361.196z M325.535,86.264l6.967,12.055l-24.119-0.008
	l-20.877-12.012l0.06-0.035H325.535z M273.931,86.264l-20.795,12.021l-24.085,0.008l6.959-12.029H273.931z M228.139,86.264
	l-6.878,12.033l-13.929,0.068L200.32,86.34l0.043-0.076H228.139z M165.536,86.264H192.5l-8.086,14.021v-8.617l-18.878-5.059V86.264z
	 M165.536,93.662l12.065,3.232l-0.003,15.203l-7.606,13.184l-4.456-1.191V93.662z M165.536,131.137l7.745,2.076l4.316-7.482
	l0.004,16.199l-12.065,6.969V131.137z M165.536,156.764l12.005-6.934l0.016,24.006l-12.021,20.834V156.764z M165.536,208.352
	l12.006,20.779l0.032,24.146l-12.038-6.939V208.352z M165.536,254.184l12.056,6.898l0.002,16.283l-4.321-7.486l-7.736,2.072V254.184
	z M165.536,279.002l4.448-1.191l7.611,13.191v15.205l-12.06,3.24V279.002z M165.536,316.49l18.872-5.053l-0.001-8.623l8.083,14.006
	h0.01l-8.086,14.021v-8.617l-18.878-5.059V316.49z M165.536,324.219l12.065,3.232l-0.003,15.201l-7.606,13.186l-4.456-1.191V324.219
	z M165.536,361.693l7.745,2.076l4.316-7.482l0.004,16.199l-12.065,6.969V361.693z M165.536,387.32l12.005-6.934l0.016,24.006
	l-12.021,20.834V387.32z M165.536,438.908l12.006,20.778l0.032,24.148l-12.038-6.939V438.908z M165.536,484.741l12.056,6.896
	l0.002,16.283l-4.321-7.486l-7.736,2.072V484.741z M165.536,509.56l4.448-1.191l7.611,13.189v15.205l-12.06,3.242V509.56z
	 M165.536,547.048l18.872-5.055l-0.001-8.623l8.083,14.008h0.01l-8.086,14.02v-8.615l-18.878-5.059V547.048z M165.536,554.774
	l12.065,3.234l-0.003,15.201l-7.606,13.184l-4.456-1.191V554.774z M165.536,592.251l7.745,2.076l4.316-7.484l0.004,16.201
	l-12.065,6.969V592.251z M165.536,617.878l12.005-6.934l0.016,24.006l-12.021,20.832V617.878z M165.536,669.466l12.006,20.779
	l0.032,24.146l-12.038-6.939V669.466z M165.536,715.298l12.056,6.896l0.002,16.283l-4.321-7.486l-7.736,2.074V715.298z
	 M165.536,740.116l4.448-1.191l7.611,13.189v15.207l-12.06,3.24V740.116z M165.536,777.935v-0.33l18.872-5.055l-0.001-8.623
	l8.083,14.008H165.536z M200.363,777.935l6.902-12.096h13.908l7.016,12.008l-0.051,0.088H200.363z M236.011,777.935l0.009-0.016
	l-0.001-0.002l-7.052-12.078h24.106l20.971,12.029l-0.113,0.066H236.011z M287.567,777.935l20.847-12.051l24.081-0.014
	l-6.968,12.053l0.006,0.006l0.003,0.006H287.567z M333.393,777.935l6.896-12.063l13.906-0.07l7.037,12.07l-0.035,0.063H333.393z
	 M395.913,777.935h-26.854l8.082-14.008l-0.002,8.617l18.774,5.027V777.935z M395.913,770.519l-11.962-3.203l0.004-15.201
	l7.605-13.184l4.353,1.162V770.519z M395.913,733.044l-7.642-2.047l-4.313,7.484l-0.008-16.197l11.963-6.912V733.044z
	 M395.913,707.505l-11.905,6.877l-0.014-24.053l11.919-20.658V707.505z M395.913,655.642l-11.906-20.605l-0.004-24.094l11.91,6.869
	V655.642z M395.913,609.956l-11.949-6.9l-0.003-16.209l4.318,7.484l7.634-2.045V609.956z M395.913,585.235l-4.344,1.164
	l-7.609-13.156l-0.003-15.24l11.956-3.213V585.235z M395.913,547.747l-18.769,5.029l0.001,8.621l-8.087-14.018l0.002-0.002h-0.002
	l8.082-14.008l-0.002,8.617l18.774,5.027V547.747z M395.913,539.962l-11.962-3.203l0.004-15.201l7.605-13.184l4.353,1.162V539.962z
	 M395.913,502.487l-7.642-2.047l-4.313,7.484l-0.008-16.197l11.963-6.912V502.487z M395.913,476.948l-11.905,6.875l-0.014-24.051
	l11.919-20.657V476.948z M395.913,425.084l-11.906-20.604l-0.004-24.094l11.91,6.867V425.084z M395.913,379.4l-11.949-6.902
	l-0.003-16.209l4.318,7.486l7.634-2.045V379.4z M395.913,354.678l-4.344,1.164l-7.609-13.156l-0.003-15.24l11.956-3.211V354.678z
	 M395.913,317.189l-18.769,5.031l0.001,8.621l-8.087-14.02l0.002-0.002h-0.002l8.082-14.008l-0.002,8.617l18.774,5.029V317.189z
	 M395.913,309.406l-11.962-3.203l0.004-15.201l7.605-13.186l4.353,1.164V309.406z M395.913,271.932l-7.642-2.047l-4.313,7.482
	l-0.008-16.197l11.963-6.91V271.932z M395.913,246.393l-11.905,6.875l-0.014-24.051l11.919-20.658V246.393z M395.913,194.527
	l-11.906-20.604l-0.004-24.094l11.91,6.867V194.527z M395.913,148.844l-11.949-6.902l-0.003-16.209l4.318,7.486l7.634-2.045V148.844
	z M395.913,124.123l-4.344,1.162l-7.609-13.156l-0.003-15.24l11.956-3.211V124.123z M395.913,86.633l-18.769,5.031l0.001,8.621
	l-8.087-14.018l0.002-0.004h26.853V86.633z"/>
<path d="M503.966,72.1v719.999h258.707V72.1H503.966z M736.604,187.527l8.126,13.949l-8.119,14.072v-8.615l-20.139-5.393
	l20.134-5.395L736.604,187.527z M736.604,418.084l8.126,13.949l-8.119,14.072v-8.615l-20.139-5.393l20.134-5.395L736.604,418.084z
	 M736.604,648.64l8.126,13.949l-8.119,14.074v-8.615l-20.139-5.395l20.134-5.393L736.604,648.64z M530.136,676.646l-8.088-14.018
	l8.082-14.01v8.615l20.139,5.395l-20.136,5.393L530.136,676.646z M530.136,446.088l-8.088-14.018l8.082-14.01v8.615l20.139,5.395
	l-20.136,5.393L530.136,446.088z M530.136,215.531l-8.088-14.018l8.082-14.008v8.613l20.139,5.395l-20.136,5.393L530.136,215.531z
	 M672.83,105.131l16.166-0.064l8.13,14.07l-7.463-4.309l-14.74,14.74l5.395-20.131L672.83,105.131z M627.802,698.612l5.563-5.564
	l0.008,0.002l5.59,5.523l-5.588,20.857l-0.001-0.004l-0.001,0.02v-0.035L627.802,698.612z M633.365,683.417l-7.601,7.602
	l-2.781-10.389l-10.404,2.789l2.789-10.398l-10.385-2.783l7.604-7.602l-7.615-7.613l10.398-2.787l-2.781-10.387l10.385,2.785
	l2.785-10.402l7.613,7.613l0.001-0.01l7.601-7.57l2.783,10.385l10.402-2.789l-2.786,10.398l10.435,2.729l-7.653,7.656l7.613,7.617
	l-10.399,2.785l2.783,10.385l-10.383-2.785l-2.736,10.459L633.365,683.417z M550.986,726.403l-14.032-8.027l-0.002-16.287
	l4.319,7.49l20.136-5.398l-14.744,14.746L550.986,726.403z M552.958,547.378l6.902-12.096h13.908l7.016,12.006l-0.051,0.09h0.001
	l-6.878,12.031l-13.928,0.07l-7.014-12.027L552.958,547.378L552.958,547.378z M550.986,495.845l-14.032-8.025l-0.002-16.287
	l4.319,7.488l20.136-5.396l-14.744,14.746L550.986,495.845z M552.958,316.82l6.902-12.094h13.908l7.016,12.006l-0.051,0.088h0.001
	l-6.878,12.031l-13.928,0.07l-7.014-12.025L552.958,316.82L552.958,316.82z M550.986,265.289l-14.032-8.025l-0.002-16.287
	l4.319,7.488l20.136-5.396l-14.744,14.746L550.986,265.289z M627.796,165.52l5.563-20.758l5.58,20.791l-5.566,5.59v-0.045
	L627.796,165.52z M633.372,180.729l0.001,0.023l7.601-7.6l2.783,10.383l10.402-2.787l-2.786,10.396l10.435,2.73l-7.653,7.656
	l7.613,7.615l-10.399,2.787l2.783,10.383l-10.383-2.783l-2.736,10.457l-7.659-7.66l-0.001,0.008v-0.027l-0.007-0.008l-7.601,7.604
	l-2.781-10.389l-10.404,2.789l2.789-10.4l-10.385-2.781l7.604-7.604l-7.615-7.613l10.398-2.787l-2.781-10.385l10.385,2.785
	l2.785-10.404L633.372,180.729z M646.481,167.645l15.285-15.283l-5.572,20.789l-7.62,2.043L646.481,167.645z M678.128,316.816
	l0.003,0.004h-0.001l6.967,12.055l-24.119-0.008l-20.877-12.012l0.06-0.035h0.002l20.847-12.051l24.081-0.012l-6.968,12.053
	L678.128,316.816z M661.768,439.703l-10.399,2.785l2.783,10.386l-10.383-2.784l-2.736,10.458l-7.659-7.66l-0.001,0.008v-0.029
	l-0.007-0.008l-7.601,7.604l-2.781-10.388l-10.404,2.788l2.789-10.399l-10.385-2.781l7.604-7.604l-7.615-7.613l10.398-2.787
	l-2.781-10.385l10.385,2.785l2.785-10.404l7.612,7.611l7.603-7.576l2.783,10.383l10.402-2.787l-2.786,10.396l10.435,2.73
	l-7.653,7.656L661.768,439.703z M678.128,547.372l0.004,0.006h-0.002l6.967,12.055l-24.119-0.01l-20.877-12.01l0.061-0.035h0.001
	l20.847-12.053l24.081-0.012l-6.968,12.053L678.128,547.372z M661.767,613.476l-5.572,20.789l-7.62,2.041l-2.093-7.549
	L661.767,613.476z M599.411,649.46l-15.219-15.217l20.799,5.572l2.037,7.602L599.411,649.46z M602.954,662.638l-5.566,5.564
	l-20.806-5.574l20.792-5.57L602.954,662.638z M604.978,613.45l15.221,15.219l-2.04,7.625l-7.604-2.037L604.978,613.45z
	 M588.614,547.36l-7.052-12.078h24.106l20.971,12.029l-0.113,0.066l-20.795,12.021l-24.085,0.008l6.96-12.029l0,0L588.614,547.36
	L588.614,547.36z M588.614,316.805l-7.052-12.078h24.106l20.971,12.029l-0.113,0.064l0,0l-20.795,12.021l-24.085,0.008l6.96-12.029
	l0,0L588.614,316.805L588.614,316.805z M599.423,214.688l7.602,2.033l-1.969,7.602l-20.857,5.588L599.423,214.688z M597.388,207.09
	l-20.806-5.576l20.792-5.57l5.58,5.58L597.388,207.09z M610.544,229.904l7.623-2.045l2.04,7.602l-15.233,15.232L610.544,229.904z
	 M627.97,328.834l-8.632,0.004l13.964-8.137l0.07,0.041l0.001-0.004v0.025l14.034,8.1l-8.646-0.004l-5.389,20.086L627.97,328.834z
	 M638.938,396.109l-5.566,5.545l-5.576-5.578l5.557-20.732L638.938,396.109z M619.33,304.744l8.649,0.008l5.396-20.111l5.396,20.137
	l8.64-0.004l-14.024,8.092L619.33,304.744z M633.374,258.318l-0.001-0.006v0.041l-0.001-0.057l-5.57-20.797l5.571-5.535v-0.014
	l5.589,5.508L633.374,258.318z M620.198,398.111l-2.04,7.627l-7.604-2.039l-5.576-20.807L620.198,398.111z M604.991,409.26
	l2.037,7.602l-7.617,2.041l-15.219-15.217L604.991,409.26z M602.954,432.08l-5.566,5.566l-20.806-5.576l20.792-5.57L602.954,432.08z
	 M599.423,445.242l7.602,2.035l-1.969,7.601l-20.857,5.59L599.423,445.242z M610.544,460.46l7.623-2.045l2.04,7.604l-15.233,15.232
	L610.544,460.46z M638.771,535.333l8.64-0.004l-14.038,8.102L619.33,535.3l8.649,0.008l5.393-20.137l0.001-0.027v0.049
	L638.771,535.333z M627.97,559.392l-8.632,0.004l13.964-8.139l14.105,8.164l-8.646-0.004l-5.389,20.1v-0.014L627.97,559.392z
	 M633.366,488.757l-5.564-20.701l5.553-5.555l5.607,5.516L633.366,488.757z M633.372,605.841l5.566,20.826l-5.564,5.564v0.008
	l-5.578-5.605L633.372,605.841z M646.541,466.056l2.04-7.627l7.604,2.035l5.575,20.813L646.541,466.056z M648.574,405.75
	l-2.093-7.549l15.285-15.283l-5.572,20.789L648.574,405.75z M646.541,235.498l2.04-7.625l7.604,2.035l5.575,20.813L646.541,235.498z
	 M618.158,175.182l-7.604-2.039l-5.576-20.807l15.221,15.221L618.158,175.182z M604.991,178.703l2.037,7.602l-7.617,2.041
	l-15.219-15.217L604.991,178.703z M577.075,288.227l14.741-14.74l-5.394,20.131l7.461,4.307l-16.141,0.064l-8.13-14.068
	L577.075,288.227z M577.712,335.664l16.177-0.006l-7.465,4.309l5.396,20.137l-14.737-14.738l-7.468,4.311L577.712,335.664z
	 M577.075,518.782l14.741-14.74l-5.394,20.133l7.461,4.305l-16.141,0.064l-8.13-14.066L577.075,518.782z M577.712,566.222
	l16.177-0.006l-7.465,4.309l5.396,20.137l-14.737-14.738l-7.468,4.311L577.712,566.222z M599.423,675.8l7.602,2.033l-1.969,7.602
	l-20.857,5.59L599.423,675.8z M610.544,691.017l7.623-2.045l2.04,7.604l-15.233,15.232L610.544,691.017z M648.581,688.985
	l7.604,2.035l5.575,20.813l-15.22-15.221L648.581,688.985z M661.747,685.466l-2.035-7.604l7.616-2.041l15.22,15.219L661.747,685.466
	z M663.786,662.646l5.564-5.568l20.806,5.576l-20.79,5.57L663.786,662.646z M667.316,649.483l-7.601-2.039l2.039-7.617l20.787-5.572
	L667.316,649.483z M689.663,575.942l-14.74,14.74l5.395-20.133l-7.487-4.307l16.166-0.063l8.13,14.068L689.663,575.942z
	 M685.957,547.433l0.03-0.055l6.896-12.063l13.906-0.07l7.037,12.07l-0.035,0.063h-0.001l-6.886,12.063l-13.902,0.061
	L685.957,547.433z M689.103,528.503l-16.255,0.004l7.468-4.305l-5.396-20.139l14.736,14.738l7.461-4.305L689.103,528.503z
	 M661.747,454.909l-2.035-7.604l7.616-2.041l15.22,15.22L661.747,454.909z M663.786,432.088l5.564-5.566l20.806,5.576l-20.79,5.57
	L663.786,432.088z M667.316,418.926l-7.601-2.037l2.039-7.619l20.787-5.572L667.316,418.926z M689.663,345.385l-14.74,14.74
	l5.395-20.131l-7.487-4.309l16.166-0.063l8.13,14.07L689.663,345.385z M685.957,316.877l0.03-0.057l6.896-12.063l13.906-0.068
	l7.037,12.068l-0.035,0.063h-0.001l-6.886,12.063l-13.902,0.061L685.957,316.877z M689.103,297.947l-16.255,0.004l7.468-4.307
	l-5.396-20.139l14.736,14.74l7.461-4.307L689.103,297.947z M661.747,224.352l-2.035-7.604l7.616-2.041l15.22,15.221L661.747,224.352
	z M663.786,201.533l5.564-5.568l20.806,5.576l-20.79,5.57L663.786,201.533z M667.316,188.369l-7.601-2.037l2.039-7.619l20.787-5.572
	L667.316,188.369z M638.761,98.303l-5.388,20.107l-0.001,0.082v-0.104l-0.008,0.031l-5.395-20.141l-8.632,0.004l13.964-8.139
	l14.105,8.162L638.761,98.303z M591.819,129.547l-14.737-14.738l-7.468,4.311l8.098-14.012l16.177-0.006l-7.465,4.309
	L591.819,129.547z M557.839,125.924l-20.838,12.033l-0.014-24.006l12.033-20.863l6.938,12.027l13.884-0.004L557.839,125.924z
	 M550.981,137.748l-4.319,7.484l14.742,14.742l-20.144-5.4l-4.314,7.479l-0.008-16.193L550.981,137.748z M557.788,277.066
	l12.051,20.854l-13.908-0.012v0.129l-6.91,11.977l-12.02-20.801l-0.068-24.172L557.788,277.066z M555.959,335.672l13.884-0.004
	l-12.004,20.813l-20.838,12.033l-0.014-24.008l12.033-20.861L555.959,335.672z M550.981,368.305l-4.319,7.484l14.742,14.742
	l-20.144-5.4l-4.314,7.477l-0.008-16.191L550.981,368.305z M557.788,507.622l12.051,20.855l-13.908-0.014v0.129l-6.91,11.979
	l-12.02-20.801l-0.068-24.172L557.788,507.622z M555.959,566.229l13.884-0.004l-12.004,20.811l-20.838,12.033l-0.014-24.006
	l12.033-20.861L555.959,566.229z M550.981,598.862l-4.319,7.482l14.742,14.742l-20.144-5.398l-4.314,7.477l-0.008-16.191
	L550.981,598.862z M557.788,738.181l12.051,20.854l-13.908-0.014v0.129l-6.91,11.979l-12.02-20.801l-0.068-24.172L557.788,738.181z
	 M569.613,745.034l7.462,4.305l14.741-14.74l-5.394,20.133l7.461,4.305l-16.141,0.064L569.613,745.034z M627.979,765.864
	l5.387-20.111l5.404,20.137l8.64-0.004l-14.019,8.09l-14.062-8.117L627.979,765.864z M674.92,734.62l14.736,14.74l7.461-4.307
	l-8.015,14.006l-16.255,0.004l7.468-4.305L674.92,734.62z M708.932,738.229l20.809-12.021l0.015,24.051l-12.034,20.861
	l-6.904-11.969l-0.005-0.111l-0.05,0.014l-13.866,0.002L708.932,738.229z M715.753,726.423l4.324-7.486l-14.74-14.738l20.141,5.395
	l4.315-7.48l0.005,16.197L715.753,726.423z M725.468,615.702l-20.134,5.396l14.741-14.746l-4.318-7.475l14.03,8.088l0.001,16.229
	L725.468,615.702z M708.95,587.101l-12.049-20.852l13.917,0.029l0.007-0.127l6.896-11.955l12.021,20.838l0.005,24.057
	L708.95,587.101z M710.816,528.595l-0.005-0.113l-0.05,0.016l-13.866,0.002l12.036-20.828l20.809-12.02l0.015,24.051l-12.034,20.861
	L710.816,528.595z M715.753,495.866l4.324-7.486l-14.74-14.738l20.141,5.395l4.315-7.48l0.005,16.197L715.753,495.866z
	 M725.468,385.145l-20.134,5.396l14.741-14.744l-4.318-7.477l14.03,8.088l0.001,16.229L725.468,385.145z M708.95,356.545
	l-12.049-20.854l13.917,0.029l0.007-0.127l6.896-11.955l12.021,20.84l0.005,24.055L708.95,356.545z M710.816,298.039l-0.005-0.113
	l-0.05,0.014l-13.866,0.004l12.036-20.828l20.809-12.02l0.015,24.051l-12.034,20.861L710.816,298.039z M715.753,265.311l4.324-7.486
	l-14.74-14.738l20.141,5.395l4.315-7.482l0.005,16.197L715.753,265.311z M725.468,154.59l-20.134,5.395l14.741-14.744l-4.318-7.477
	l14.03,8.088l0.001,16.229L725.468,154.59z M708.95,125.988l-12.049-20.854l13.917,0.029l0.007-0.125l6.896-11.957l12.021,20.84
	l0.005,24.055L708.95,125.988z M713.791,86.264l-6.886,12.063l-13.902,0.061l-7.046-12.066l0.03-0.057H713.791z M678.13,86.264
	l6.967,12.055l-24.119-0.008l-20.877-12.012l0.061-0.035H678.13z M633.373,86.264v0.006V86.264L633.373,86.264z M626.526,86.264
	l-20.795,12.021l-24.085,0.008l6.96-12.029H626.526z M580.734,86.264l-6.878,12.033l-13.928,0.068l-7.014-12.025l0.043-0.076
	H580.734z M518.131,86.264h26.964l-8.086,14.021v-8.617l-18.878-5.059V86.264z M518.131,93.662l12.065,3.232l-0.003,15.203
	l-7.606,13.184l-4.456-1.191V93.662z M518.131,131.137l7.745,2.076l4.316-7.482l0.004,16.199l-12.065,6.969V131.137z
	 M518.131,156.764l12.005-6.934l0.016,24.006l-12.021,20.834V156.764z M518.131,208.352l12.006,20.779l0.032,24.146l-12.038-6.939
	V208.352z M518.131,254.184l12.056,6.898l0.002,16.283l-4.32-7.486l-7.737,2.072V254.184z M518.131,279.002l4.448-1.191
	l7.611,13.191l0.001,15.205l-12.061,3.24V279.002z M518.131,316.49l18.872-5.053v-8.623l8.082,14.006h0.01l-8.086,14.021v-8.617
	l-18.878-5.059V316.49z M518.131,324.219l12.065,3.232l-0.003,15.201l-7.606,13.186l-4.456-1.191V324.219z M518.131,361.693
	l7.745,2.076l4.316-7.482l0.004,16.199l-12.065,6.969V361.693z M518.131,387.32l12.005-6.934l0.016,24.006l-12.021,20.834V387.32z
	 M518.131,438.908l12.006,20.778l0.032,24.148l-12.038-6.939V438.908z M518.131,484.741l12.056,6.896l0.002,16.283l-4.32-7.486
	l-7.737,2.072V484.741z M518.131,509.56l4.448-1.191l7.611,13.189l0.001,15.205l-12.061,3.242V509.56z M518.131,547.048
	l18.872-5.055v-8.623l8.082,14.008h0.01l-8.086,14.02v-8.615l-18.878-5.059V547.048z M518.131,554.774l12.065,3.234l-0.003,15.201
	l-7.606,13.184l-4.456-1.191V554.774z M518.131,592.251l7.745,2.076l4.316-7.484l0.004,16.201l-12.065,6.969V592.251z
	 M518.131,617.878l12.005-6.934l0.016,24.006l-12.021,20.832V617.878z M518.131,669.466l12.006,20.779l0.032,24.146l-12.038-6.939
	V669.466z M518.131,715.298l12.056,6.896l0.002,16.283l-4.32-7.486l-7.737,2.074V715.298z M518.131,740.116l4.448-1.191
	l7.611,13.189l0.001,15.207l-12.061,3.24V740.116z M518.131,777.935v-0.33l18.872-5.055v-8.623l8.082,14.008H518.131z
	 M552.958,777.935l6.902-12.096h13.908l7.016,12.008l-0.051,0.088H552.958z M588.606,777.935l0.009-0.016l-0.001-0.002
	l-7.052-12.078h24.106l20.971,12.029l-0.113,0.066H588.606z M640.162,777.935l20.847-12.051l24.081-0.014l-6.968,12.053l0.006,0.006
	l0.004,0.006H640.162z M685.987,777.935l6.896-12.063l13.906-0.07l7.037,12.07l-0.035,0.063H685.987z M748.508,777.935h-26.854
	l8.082-14.008l-0.002,8.617l18.774,5.027V777.935z M748.508,770.519l-11.962-3.203l0.004-15.201l7.605-13.184l4.353,1.162V770.519z
	 M748.508,733.044l-7.642-2.047l-4.314,7.484l-0.006-16.197l11.962-6.912V733.044z M748.508,707.505l-11.905,6.877l-0.014-24.053
	l11.919-20.658V707.505z M748.508,655.642l-11.906-20.605l-0.004-24.094l11.91,6.869V655.642z M748.508,609.956l-11.949-6.9
	l-0.003-16.209l4.318,7.484l7.634-2.045V609.956z M748.508,585.235l-4.344,1.164l-7.61-13.156l-0.002-15.24l11.956-3.213V585.235z
	 M748.508,547.747l-18.769,5.029l0.001,8.621l-8.087-14.018l0.002-0.002h-0.002l8.082-14.008l-0.002,8.617l18.774,5.027V547.747z
	 M748.508,539.962l-11.962-3.203l0.004-15.201l7.605-13.184l4.353,1.162V539.962z M748.508,502.487l-7.642-2.047l-4.314,7.484
	l-0.006-16.197l11.962-6.912V502.487z M748.508,476.948l-11.905,6.875l-0.014-24.051l11.919-20.657V476.948z M748.508,425.084
	l-11.906-20.604l-0.004-24.094l11.91,6.867V425.084z M748.508,379.4l-11.949-6.902l-0.003-16.209l4.318,7.486l7.634-2.045V379.4z
	 M748.508,354.678l-4.344,1.164l-7.61-13.156l-0.002-15.24l11.956-3.211V354.678z M748.508,317.189l-18.769,5.031l0.001,8.621
	l-8.087-14.02l0.002-0.002h-0.002l8.082-14.008l-0.002,8.617l18.774,5.029V317.189z M748.508,309.406l-11.962-3.203l0.004-15.201
	l7.605-13.186l4.353,1.164V309.406z M748.508,271.932l-7.642-2.047l-4.314,7.482l-0.006-16.197l11.962-6.91V271.932z
	 M748.508,246.393l-11.905,6.875l-0.014-24.051l11.919-20.658V246.393z M748.508,194.527l-11.906-20.604l-0.004-24.094l11.91,6.867
	V194.527z M748.508,148.844l-11.949-6.902l-0.003-16.209l4.318,7.486l7.634-2.045V148.844z M748.508,124.123l-4.344,1.162
	l-7.61-13.156l-0.002-15.24l11.956-3.211V124.123z M748.508,86.633l-18.769,5.031l0.001,8.621l-8.087-14.018l0.002-0.004h26.853
	V86.633z"/>
</svg>
