<?xml version="1.0" encoding="utf-8"?>
<!-- Generator: Adobe Illustrator 14.0.0, SVG Export Plug-In . SVG Version: 6.00 Build 43363)  -->
<!DOCTYPE svg PUBLIC "-//W3C//DTD SVG 1.1//EN" "http://www.w3.org/Graphics/SVG/1.1/DTD/svg11.dtd">
<svg version="1.1" id="Layer_1" xmlns="http://www.w3.org/2000/svg" xmlns:xlink="http://www.w3.org/1999/xlink" x="0px" y="0px"
	 width="864px" height="864px" viewBox="0 0 864 864" enable-background="new 0 0 864 864" xml:space="preserve">
<path d="M258.911,72.1v345.6h345.376V72.1H258.911z M569.609,226.197l10.848,18.621l-10.84,18.789v-11.504l-26.885-7.199
	l26.881-7.199L569.609,226.197z M293.973,263.584l-10.797-18.715l10.789-18.703v11.502l26.887,7.201l-26.882,7.199L293.973,263.584z
	 M484.473,116.195l21.58-0.084l10.854,18.783l-9.961-5.752l-19.68,19.68l7.201-26.877L484.473,116.195z M508.441,140.508
	l17.576,10.152l10.164,17.59l-25.842,25.873l-37.936,10.164l10.154-37.896L508.441,140.508z M431.796,272.66l-0.001,0.01v-0.037
	l-0.01-0.01l-10.146,10.148l-3.714-13.867l-13.889,3.723l3.723-13.883l-13.863-3.715l10.149-10.148l-10.165-10.166l13.882-3.721
	l-3.714-13.863l13.864,3.717l3.718-13.887l10.163,10.16l0.002,0.031l10.147-10.146l3.715,13.861l13.887-3.721l-3.719,13.879
	l13.932,3.646l-10.219,10.221l10.164,10.168l-13.883,3.717l3.715,13.863l-13.861-3.715l-3.654,13.959L431.796,272.66z
	 M439.256,292.855l-7.458,27.846l-0.001-0.006v0.057l-0.001-0.076l-7.437-27.766l7.438-7.389v-0.02L439.256,292.855z
	 M321.809,330.01l-18.732-10.715l-0.004-21.744l5.768,9.998l26.881-7.205l-19.684,19.686L321.809,330.01z M313.229,296.959
	l-10.16-17.563l-0.004-20.346l35.306-9.484l38.03,10.102l-27.817,27.818L313.229,296.959z M393.907,214.416l2.721,10.148
	l-10.172,2.725l-20.316-20.314L393.907,214.416z M393.888,179.217l20.319,20.318l-2.723,10.18l-10.152-2.721L393.888,179.217z
	 M391.187,244.883l-7.43,7.43l-27.775-7.443l27.757-7.436L391.187,244.883z M376.313,230.008l-37.896,10.152l-35.358-9.471
	l0.004-20.295l10.155-17.6l35.327,9.443L376.313,230.008z M386.473,262.455l10.146,2.715l-2.627,10.148l-27.846,7.461
	L386.473,262.455z M401.32,282.77l10.177-2.729l2.723,10.148l-20.337,20.336L401.32,282.77z M424.352,196.818l7.426-27.715
	l7.447,27.758l-7.429,7.461v-0.059L424.352,196.818z M449.297,199.652l20.404-20.4l-7.438,27.752l-10.174,2.727L449.297,199.652z
	 M452.1,280.059l10.152,2.717l7.443,27.785l-20.32-20.322L452.1,280.059z M469.676,275.357l-2.717-10.15l10.168-2.725l20.318,20.318
	L469.676,275.357z M472.396,244.893l7.43-7.432l27.775,7.443l-27.754,7.438L472.396,244.893z M477.111,227.32l-10.148-2.721
	l2.725-10.17l27.75-7.439L477.111,227.32z M474.441,161.646l-27.766,27.889l-10.184-38.004l9.473-35.352l20.334,0.006l17.578,10.146
	L474.441,161.646z M438.988,107.082l-7.192,26.842l-0.001,0.109v-0.137l-0.011,0.043l-7.202-26.891l-11.523,0.006l18.642-10.865
	l18.831,10.896L438.988,107.082z M417.604,116.145l9.486,35.314l-10.166,37.936L389.18,161.65l-9.473-35.354l17.578-10.145
	L417.604,116.145z M381.02,166.313l10.268,37.986l-38.004-10.18l-25.879-25.883l10.13-17.58l17.617-10.174L381.02,166.313z
	 M376.323,148.793l-19.676-19.676l-9.969,5.754l10.81-18.705l21.597-0.008l-9.965,5.752L376.323,148.793z M330.958,143.955
	l-27.818,16.064l-0.019-32.049l16.065-27.85l9.262,16.055l18.535-0.004L330.958,143.955z M321.803,159.742l-5.766,9.99l19.68,19.682
	l-26.891-7.209l-5.762,9.982l-0.01-21.617L321.803,159.742z M330.889,345.732l16.09,27.84l-18.568-0.018v0.172l-9.225,15.99
	l-16.046-27.77l-0.092-32.268L330.889,345.732z M346.676,354.883l9.961,5.748l19.682-19.678l-7.201,26.875l9.961,5.748
	l-21.549,0.086L346.676,354.883z M355.143,349.266l-17.572-10.15l-10.165-17.592l25.839-25.873l37.936-10.164l-10.156,37.896
	L355.143,349.266z M389.141,328.127l27.801-27.799l10.162,37.865l-9.487,35.402l-20.331-0.01l-17.58-10.145L389.141,328.127z
	 M424.595,382.691l7.204-26.846l7.203,26.879l11.533-0.004l-18.721,10.803l-18.765-10.842L424.595,382.691z M445.979,373.631
	l-9.486-35.314l10.166-37.936l27.742,27.74l9.473,35.357l-17.576,10.145L445.979,373.631z M482.568,323.461l-10.271-37.998
	l37.971,10.158l25.916,25.914l-10.133,17.58l-17.619,10.178L482.568,323.461z M487.262,340.98l19.674,19.676l9.959-5.748
	l-10.699,18.699l-21.701,0.006l9.971-5.748L487.262,340.98z M532.668,345.797l27.779-16.047l0.02,32.109l-16.066,27.85
	l-9.217-15.979l-0.006-0.15l-0.068,0.018l-18.51,0.004L532.668,345.797z M541.773,330.037l5.773-9.994l-19.68-19.676l26.889,7.201
	l5.762-9.986l0.006,21.623L541.773,330.037z M560.52,279.379l-10.154,17.6l-35.322-9.439l-27.771-27.773l37.895-10.154l35.357,9.475
	L560.52,279.379z M525.217,240.209l-38.037-10.102l27.82-27.82l35.354-9.475l10.162,17.611l0.002,20.299L525.217,240.209z
	 M554.744,182.225l-26.879,7.203l19.68-19.686l-5.766-9.98l18.73,10.799l0.002,21.664L554.744,182.225z M532.691,144.041
	l-16.084-27.838l18.58,0.039l0.008-0.17l9.205-15.961l16.049,27.82l0.006,32.115L532.691,144.041z M539.154,91.01l-9.191,16.104
	l-18.561,0.08l-9.406-16.109l0.041-0.074H539.154z M491.547,91.01l9.301,16.094l-32.199-0.012l-27.871-16.035l0.08-0.047H491.547z
	 M431.796,91.01v0.006V91.01L431.796,91.01z M422.656,91.01l-27.761,16.049l-32.154,0.01l9.291-16.059H422.656z M361.524,91.01
	l-9.184,16.063l-18.594,0.094l-9.361-16.057l0.057-0.1H361.524z M277.821,91.01h36.123l-10.795,18.717V98.225l-25.328-6.787V91.01z
	 M277.821,100.852l16.233,4.35l-0.003,20.295l-10.155,17.602l-6.075-1.625V100.852z M277.821,150.883l10.467,2.805l5.762-9.99
	l0.006,21.627l-16.234,9.375V150.883z M277.821,185.201l16.152-9.33l0.021,32.049l-16.068,27.848l-0.105-0.182V185.201z
	 M277.821,254.15l0.107-0.186l16.047,27.773l0.043,32.236l-16.197-9.336V254.15z M277.821,315.111l16.221,9.281l0.003,21.738
	l-5.769-9.994l-10.455,2.801V315.111z M277.821,348.35l6.064-1.623l10.16,17.609l0.002,20.299l-16.227,4.361V348.35z
	 M277.821,398.789v-0.391l25.321-6.781l-0.001-11.512l10.781,18.684H277.821z M324.45,398.789l9.207-16.131h18.568l9.364,16.027
	l-0.059,0.104H324.45z M372.042,398.789l0.002-0.006h-0.001l-9.413-16.125h32.181l27.997,16.059l-0.123,0.072H372.042z
	 M440.887,398.789l27.803-16.072l32.148-0.018l-9.301,16.09H440.887z M502.047,398.789l9.197-16.088l18.564-0.092l9.395,16.111
	l-0.039,0.068H502.047z M585.377,398.789H549.66l10.779-18.686v11.506l24.938,6.678V398.789z M585.377,388.873l-15.844-4.244
	l0.004-20.293l10.154-17.602l5.686,1.52V388.873z M585.377,338.844l-10.076-2.699l-5.76,9.99l-0.01-21.623l15.846-9.156V338.844z
	 M585.377,304.854l-15.768,9.107l-0.018-32.109l15.785-27.361V304.854z M585.377,235.326l-15.77-27.291l-0.006-32.166l15.775,9.098
	V235.326z M585.377,174.48l-15.826-9.141l-0.004-21.639l5.766,9.992l10.064-2.695V174.48z M585.377,141.584l-5.674,1.52
	l-10.158-17.563l-0.004-20.348l15.836-4.254V141.584z M585.377,91.535l-24.932,6.684l0.002,11.508L549.65,91.014l0.002-0.004h35.725
	V91.535z"/>
<path d="M258.911,792.099h345.376v-345.6H258.911V792.099z M293.973,637.983l-10.797-18.714l10.789-18.703v11.501l26.887,7.202
	l-26.882,7.198L293.973,637.983z M335.717,563.813l-26.891-7.209l-5.762,9.982l-0.01-21.617l18.748-10.828l-5.766,9.99
	L335.717,563.813z M321.809,704.409l-18.732-10.715l-0.004-21.744l5.768,9.998l26.881-7.205l-19.684,19.686L321.809,704.409z
	 M330.889,720.132l16.09,27.841l-18.568-0.018v0.172l-9.225,15.99l-16.046-27.77l-0.092-32.269L330.889,720.132z M424.352,571.218
	l7.426-27.715l7.447,27.758l-7.429,7.461v-0.058L424.352,571.218z M431.794,591.521l0.002,0.031l10.147-10.146l3.715,13.862
	l13.887-3.722l-3.719,13.88l13.932,3.646l-10.219,10.221l10.164,10.168l-13.883,3.718l3.715,13.863l-13.861-3.716l-3.654,13.96
	l-10.223-10.226l-0.001,0.01v-0.037l-0.01-0.01l-10.146,10.148l-3.714-13.867l-13.889,3.723l3.723-13.883l-13.863-3.715
	l10.149-10.148l-10.165-10.165l13.882-3.721l-3.714-13.864l13.864,3.718l3.718-13.888L431.794,591.521z M469.676,649.758
	l-2.717-10.15l10.168-2.725l20.318,20.317L469.676,649.758z M469.695,684.96l-20.32-20.322l2.725-10.18l10.152,2.717L469.695,684.96
	z M472.396,619.293l7.43-7.433l27.775,7.443l-27.754,7.438L472.396,619.293z M487.262,715.38l19.674,19.677l9.959-5.749
	l-10.699,18.7l-21.701,0.006l9.971-5.749L487.262,715.38z M506.945,503.543l-19.68,19.679l7.201-26.877l-9.994-5.75l21.58-0.083
	l10.854,18.782L506.945,503.543z M497.438,581.391l-20.326,20.33L466.963,599l2.725-10.17L497.438,581.391z M462.264,581.404
	l-10.174,2.726l-2.793-10.078l20.404-20.4L462.264,581.404z M439.256,667.256l-7.458,27.846l-0.001-0.006v0.056l-0.001-0.076
	l-7.437-27.765l7.438-7.39v-0.02L439.256,667.256z M386.473,636.854l10.146,2.715l-2.627,10.148l-27.846,7.461L386.473,636.854z
	 M355.981,619.27l27.757-7.437l7.449,7.449l-7.43,7.43L355.981,619.27z M401.32,657.169l10.177-2.729l2.723,10.148l-20.337,20.336
	L401.32,657.169z M411.485,584.114l-10.152-2.721l-7.444-27.777l20.319,20.318L411.485,584.114z M393.907,588.815l2.721,10.148
	l-10.172,2.726l-20.316-20.315L393.907,588.815z M376.323,523.193l-19.676-19.677l-9.969,5.755l10.81-18.706l21.597-0.008
	l-9.965,5.752L376.323,523.193z M356.637,735.03l19.682-19.678l-7.201,26.876l9.961,5.748l-21.549,0.085l-10.854-18.779
	L356.637,735.03z M361.531,773.188H324.45l9.207-16.131h18.568l9.364,16.028L361.531,773.188z M422.684,773.188h-50.643l0.002-0.006
	h-0.001l-9.413-16.125h32.181l27.997,16.06L422.684,773.188z M413.049,757.082l11.546,0.01l7.204-26.847l7.203,26.88l11.533-0.005
	l-18.721,10.803L413.049,757.082z M491.537,773.188h-50.65l27.803-16.072l32.148-0.017L491.537,773.188z M539.164,773.188h-37.117
	l9.197-16.087l18.564-0.093l9.395,16.112L539.164,773.188z M535.184,748.13l-0.006-0.15l-0.068,0.019l-18.51,0.004l16.068-27.805
	l27.779-16.048l0.02,32.109l-16.066,27.85L535.184,748.13z M541.779,534.161l18.73,10.799l0.002,21.664l-5.768-10l-26.879,7.203
	l19.68-19.685L541.779,534.161z M569.609,600.597l10.848,18.621l-10.84,18.789v-11.503l-26.885-7.2l26.881-7.199L569.609,600.597z
	 M527.867,674.767l26.889,7.201l5.762-9.986l0.006,21.623l-18.75,10.833l5.773-9.995L527.867,674.767z M585.377,773.188H549.66
	l10.779-18.685v11.505l24.938,6.679V773.188z M585.377,763.272l-15.844-4.244l0.004-20.293l10.154-17.602l5.686,1.52V763.272z
	 M585.377,713.243l-10.076-2.699l-5.76,9.99l-0.01-21.623l15.846-9.155V713.243z M585.377,679.253l-15.768,9.107l-0.018-32.108
	l15.785-27.361V679.253z M585.377,609.726l-15.77-27.291l-0.006-32.165l15.775,9.097V609.726z M585.377,548.881l-15.826-9.142
	l-0.004-21.639l5.766,9.993l10.064-2.696V548.881z M585.377,515.983l-5.674,1.521l-10.158-17.563l-0.004-20.348l15.836-4.254
	V515.983z M549.652,465.409h35.725v0.526l-24.932,6.683l0.002,11.508l-10.797-18.713L549.652,465.409z M560.449,502.332
	l0.006,32.114l-27.764-16.006l-16.084-27.838l18.58,0.039l0.008-0.169l9.205-15.961L560.449,502.332z M502.037,465.409h37.117
	l-9.191,16.104l-18.561,0.081l-9.406-16.11L502.037,465.409z M440.857,465.409h50.689l9.301,16.094l-32.199-0.012l-27.871-16.035
	L440.857,465.409z M431.796,465.409v0.006V465.409L431.796,465.409z M450.531,481.486l-11.543-0.005l-7.192,26.842l-0.001,0.11
	v-0.138l-0.011,0.043l-7.202-26.891l-11.523,0.006l18.642-10.865L450.531,481.486z M372.032,465.409h50.624l-27.761,16.049
	l-32.154,0.011L372.032,465.409z M324.442,465.409h37.082l-9.184,16.063l-18.594,0.094l-9.361-16.056L324.442,465.409z
	 M328.448,490.575l18.535-0.004l-16.025,27.783l-27.818,16.064l-0.019-32.049l16.065-27.85L328.448,490.575z M277.821,465.409
	h36.123l-10.795,18.717v-11.502l-25.328-6.787V465.409z M277.821,475.252l16.233,4.349l-0.003,20.295l-10.155,17.602l-6.075-1.624
	V475.252z M277.821,525.282l10.467,2.805l5.762-9.99l0.006,21.628l-16.234,9.375V525.282z M277.821,559.601l16.152-9.33
	l0.021,32.049l-16.068,27.848l-0.105-0.182V559.601z M277.821,628.55l0.107-0.185l16.047,27.772l0.043,32.236l-16.197-9.336V628.55z
	 M277.821,689.512l16.221,9.28l0.003,21.738l-5.769-9.994l-10.455,2.801V689.512z M277.821,722.75l6.064-1.624l10.16,17.609
	l0.002,20.3l-16.227,4.36V722.75z M277.821,772.798l25.321-6.781l-0.001-11.512l10.781,18.684h-36.102V772.798z"/>
</svg>
